<svg version="1.1" id="Layer_1" xmlns="http://www.w3.org/2000/svg" xmlns:xlink="http://www.w3.org/1999/xlink" x="0px" y="0px"
	 width="100%" viewBox="0 0 2000 1800" enable-background="new 0 0 2000 1800" xml:space="preserve">
<path fill="#000000" opacity="1.000000" stroke="none" 
	d="
M1.000001,1135.000000 
	C1.000000,1129.969116 1.000000,1124.938110 1.448639,1119.503174 
	C20.485180,1117.584106 39.057114,1115.826416 57.664150,1114.602417 
	C103.039803,1111.617676 148.428864,1108.832642 193.821106,1106.110107 
	C198.930939,1105.803711 203.689240,1105.885864 205.820099,1099.881348 
	C206.375839,1098.315308 208.129990,1097.046143 209.565582,1095.942017 
	C216.818207,1090.364014 224.088943,1084.805664 231.472580,1079.403320 
	C235.574295,1076.402222 239.909241,1073.719727 245.164215,1070.208740 
	C198.264725,1075.097290 152.530960,1075.752808 106.768517,1075.724487 
	C78.287621,1075.706787 49.806259,1075.720337 21.326033,1075.882446 
	C14.548788,1075.921021 7.775248,1076.610107 1.000002,1077.000000 
	C1.000000,1072.302368 1.000000,1067.604858 1.431004,1062.391357 
	C27.324650,1061.127441 52.782955,1060.130127 78.250908,1059.687744 
	C120.221405,1058.958374 162.199005,1058.645508 204.171356,1058.008301 
	C211.088013,1057.903320 217.993134,1057.038452 224.950211,1056.521240 
	C225.757324,1015.075623 225.190292,974.306763 230.324463,933.046326 
	C222.903351,933.046326 215.762909,933.143494 208.625793,933.030701 
	C158.329285,932.235901 108.034424,930.921265 57.736916,930.819275 
	C38.827511,930.780945 19.912470,933.524597 0.999999,935.000000 
	C1.000000,929.969055 1.000000,924.938171 1.433910,919.465454 
	C8.976894,918.215637 16.067003,917.126038 23.198151,916.645752 
	C66.607780,913.721863 110.060890,914.100037 153.514740,915.299072 
	C180.474930,916.043091 207.428314,917.036865 234.389511,917.734619 
	C236.424927,917.787231 238.968719,916.886841 240.469116,915.534241 
	C245.650116,910.863159 250.434174,905.754944 255.447693,900.893921 
	C258.483917,897.950195 261.664520,895.155334 265.926666,891.240601 
	C262.741821,891.240601 261.149567,891.206970 259.559082,891.245361 
	C206.470535,892.525574 153.380661,893.754150 100.294319,895.120300 
	C67.193428,895.972107 34.097923,897.033020 1.000001,898.000000 
	C1.000000,599.016907 1.000000,300.033752 1.000000,1.025316 
	C667.612122,1.025316 1334.224243,1.025316 2000.918213,1.025316 
	C2000.918213,600.911621 2000.918213,1200.823242 2000.918213,1800.867432 
	C1334.333374,1800.867432 667.666687,1800.867432 1.000004,1800.872803 
	C1.000000,1629.221069 1.000000,1457.564209 1.429711,1285.325562 
	C18.971287,1283.563477 36.066406,1281.951538 53.198277,1281.286621 
	C97.635956,1279.562378 142.089905,1278.258179 186.536804,1276.769165 
	C188.271957,1276.711060 190.001221,1276.476562 190.526550,1276.430420 
	C189.288589,1224.314697 195.720413,1173.247192 198.796371,1121.671021 
	C197.120758,1121.671021 195.486938,1121.588379 193.863495,1121.683350 
	C164.436157,1123.405273 134.992798,1124.901001 105.588165,1126.951172 
	C70.707932,1129.382812 35.861233,1132.295654 1.000001,1135.000000 
M565.611572,1237.895630 
	C565.716675,1237.579468 565.821777,1237.263184 566.623230,1237.390625 
	C580.589844,1230.813843 594.589478,1224.304688 608.459351,1217.529785 
	C609.553955,1216.995117 610.294250,1214.608276 610.277588,1213.092163 
	C609.955872,1183.784058 609.495239,1154.477539 609.068909,1125.170654 
	C609.043030,1123.391113 609.065552,1121.610962 609.065552,1119.568237 
	C606.594360,1119.311890 604.637451,1118.949585 602.677002,1118.929077 
	C553.227783,1118.410889 503.777863,1117.959229 454.329559,1117.371826 
	C451.032196,1117.332764 449.830750,1118.825195 449.425018,1121.603882 
	C448.152069,1130.322754 446.306519,1139.011108 445.781067,1147.777100 
	C443.564880,1184.748901 444.304626,1221.691406 448.019501,1258.557495 
	C448.211945,1260.467285 448.579834,1262.359375 448.874115,1264.313599 
	C466.806915,1263.711670 484.120056,1263.314575 501.410095,1262.454468 
	C507.811035,1262.136108 514.708374,1262.014893 520.421326,1259.567627 
	C534.881042,1253.373291 548.797668,1245.911621 563.531372,1238.855225 
	C564.002747,1238.555542 564.474121,1238.255859 565.611572,1237.895630 
M294.515472,1272.025269 
	C319.254120,1270.720947 343.989807,1269.356445 368.732422,1268.132812 
	C386.177399,1267.270142 403.633698,1266.637573 421.080597,1265.810913 
	C424.989563,1265.625854 428.880463,1265.060059 431.944489,1264.753174 
	C430.960999,1239.982178 429.638672,1215.760742 429.138092,1191.522339 
	C428.634094,1167.118652 428.876617,1142.693726 434.193024,1117.985352 
	C431.793335,1117.985352 430.003448,1117.934937 428.217133,1117.993896 
	C419.738312,1118.273193 411.262268,1118.762573 402.781891,1118.850464 
	C362.143799,1119.271484 321.504761,1119.611450 280.865692,1119.928345 
	C263.203430,1120.066040 245.539719,1120.027344 227.877731,1120.186768 
	C223.765411,1120.223755 219.657425,1120.742065 214.700882,1121.100098 
	C210.744431,1172.681030 205.714310,1223.886475 205.649811,1275.895508 
	C207.240540,1275.895508 209.034073,1275.966919 210.820572,1275.884766 
	C238.395218,1274.616821 265.968933,1273.328857 294.515472,1272.025269 
M292.649353,1049.912964 
	C347.167908,1044.783813 401.778839,1041.467773 455.818909,1042.306519 
	C455.818909,1002.441711 455.818909,963.320740 455.818909,923.789490 
	C453.616821,923.789490 451.640472,923.708862 449.672241,923.801086 
	C383.265381,926.911987 316.860168,930.058167 250.450272,933.101746 
	C247.499207,933.237061 246.257309,934.401489 245.896942,937.125427 
	C245.264038,941.909241 244.097549,946.665649 243.929291,951.460754 
	C242.766586,984.596375 241.798950,1017.738831 240.797562,1050.880005 
	C240.759949,1052.124268 241.019409,1053.377441 241.153244,1054.758789 
	C258.255157,1053.147705 274.994751,1051.570801 292.649353,1049.912964 
M860.702271,1037.073853 
	C871.106262,1036.490723 881.510254,1035.907593 892.205627,1035.308105 
	C889.996521,997.403381 887.828308,960.200256 885.635437,922.573486 
	C816.532593,922.573486 748.349243,922.573486 679.736877,922.573486 
	C678.469421,963.828125 677.233704,1004.051880 675.989502,1044.549683 
	C677.990417,1044.549683 679.130493,1044.534546 680.269958,1044.552002 
	C692.898804,1044.745728 705.527405,1044.969727 718.156799,1045.107178 
	C719.573792,1045.122559 721.020813,1044.752441 722.410706,1044.393555 
	C725.409912,1043.619263 728.355835,1042.113647 731.367554,1041.991333 
	C774.158081,1040.255371 816.955872,1038.700806 860.702271,1037.073853 
M662.512573,972.437256 
	C663.085571,956.052429 663.658569,939.667603 664.232483,923.257202 
	C599.717224,923.257202 535.988464,923.257202 471.271301,923.257202 
	C470.101898,963.397644 470.135651,1003.032166 472.501953,1042.963745 
	C535.546326,1043.756470 597.951782,1044.541138 660.517517,1045.327881 
	C661.166687,1020.967224 661.800354,997.189941 662.512573,972.437256 
M259.309540,1079.828857 
	C247.315277,1087.693848 235.321014,1095.558838 222.259766,1104.123535 
	C232.186600,1104.123535 240.278183,1104.172485 248.369003,1104.115479 
	C294.681976,1103.789795 340.995300,1103.495361 387.307343,1103.067139 
	C404.288208,1102.910156 421.266907,1102.454346 438.243347,1102.009277 
	C439.731384,1101.970337 441.565063,1101.384644 442.613068,1100.392578 
	C454.447632,1089.189697 466.123230,1077.818848 477.933533,1066.589966 
	C480.564117,1064.088989 483.553741,1061.965698 487.104156,1059.077881 
	C480.088654,1058.726196 474.285309,1058.261108 468.476196,1058.172119 
	C430.343933,1057.587891 392.231537,1057.787598 354.179443,1060.865356 
	C334.628967,1062.446655 315.049927,1063.672607 295.491302,1065.157959 
	C291.536804,1065.458374 287.227081,1065.344482 283.757660,1066.915649 
	C275.597626,1070.610840 267.846375,1075.208740 259.309540,1079.828857 
M714.182617,1114.700439 
	C714.740723,1100.006470 715.298828,1085.312378 715.867737,1070.334473 
	C714.681702,1070.620605 714.175110,1070.649048 713.757996,1070.856812 
	C685.029724,1085.171509 656.282898,1099.449829 627.659851,1113.972046 
	C626.161194,1114.732422 624.908875,1117.575317 624.908142,1119.449219 
	C624.898193,1144.592163 625.090881,1169.735596 625.337769,1194.877808 
	C625.389160,1200.108276 625.865112,1205.334351 626.179626,1211.202026 
	C630.746033,1208.926025 634.697754,1206.869629 638.721252,1204.965210 
	C662.014282,1193.939697 685.298523,1182.894775 708.654419,1172.003662 
	C712.450500,1170.233521 713.962280,1167.937500 713.922363,1163.615845 
	C713.774597,1147.632935 714.054688,1131.645996 714.182617,1114.700439 
M645.535889,1060.860352 
	C603.080017,1060.348267 560.624451,1059.803589 518.167480,1059.406738 
	C515.660645,1059.383179 512.548584,1059.809692 510.723145,1061.277100 
	C495.304871,1073.671753 480.115570,1086.351562 464.884277,1098.978027 
	C464.237518,1099.514160 463.854218,1100.368164 462.990082,1101.573730 
	C464.881104,1101.573730 466.013977,1101.567505 467.146790,1101.574585 
	C514.751160,1101.874634 562.390991,1099.904663 609.943298,1103.810913 
	C611.784241,1103.962158 613.886108,1103.337280 615.581848,1102.498657 
	C642.829529,1089.023193 670.032654,1075.457520 697.236450,1061.893555 
	C698.342712,1061.341919 699.356140,1060.604004 700.412781,1059.952881 
	C700.341370,1060.256714 700.269958,1060.560669 700.198547,1060.864502 
	C682.307678,1060.864502 664.416809,1060.864502 645.535889,1060.860352 
M796.124695,906.657104 
	C798.268738,906.439636 800.414551,906.016846 802.556458,906.035950 
	C828.535950,906.267517 854.527527,906.187683 880.487000,907.053833 
	C889.241943,907.345947 896.648193,906.319702 903.256714,900.185425 
	C907.005005,896.706177 911.652405,894.208984 915.809631,891.153564 
	C921.485046,886.982117 927.079346,882.700256 932.708435,878.465820 
	C929.388062,877.390991 926.446594,877.410095 923.505371,877.388000 
	C892.194031,877.152161 860.882324,876.954651 829.571533,876.657410 
	C793.930298,876.319153 758.289307,875.928589 722.649963,875.440186 
	C719.173889,875.392517 716.789124,876.474670 714.492004,879.088928 
	C707.569214,886.967407 700.365479,894.598816 693.300598,902.353210 
	C692.132141,903.635742 691.111389,905.052917 689.795715,906.689880 
	C725.347717,906.689880 760.264587,906.689880 796.124695,906.657104 
M589.950562,907.166077 
	C614.758362,907.232849 639.566406,907.251892 664.373474,907.423889 
	C667.643677,907.446533 669.779236,906.481873 671.952393,903.889648 
	C679.004639,895.477417 686.448669,887.393860 693.725403,879.169250 
	C694.521973,878.268982 695.212158,877.274536 696.562500,875.538452 
	C669.473450,876.530457 643.361572,877.221130 617.279358,878.511292 
	C586.861938,880.015808 556.475769,882.146729 526.062134,883.740723 
	C521.201965,883.995544 517.325745,885.095093 513.509644,888.326538 
	C505.953033,894.725342 497.887207,900.522949 489.264008,907.160034 
	C523.163696,907.160034 556.089600,907.160034 589.950562,907.166077 
M948.790771,965.494812 
	C948.790771,939.407043 948.790771,913.319214 948.790771,886.372681 
	C946.827515,887.539246 945.691406,888.095520 944.685425,888.830017 
	C931.235107,898.650696 917.860168,908.576172 904.318909,918.269531 
	C901.543701,920.256226 900.660461,922.247864 900.895020,925.667603 
	C902.627991,950.934692 904.123230,976.218201 905.676392,1001.497559 
	C906.090942,1008.245239 906.446594,1014.996521 906.864929,1022.374329 
	C908.033325,1021.514954 908.601440,1021.200317 909.041504,1020.758240 
	C919.151733,1010.602173 928.850952,999.991516 939.482239,990.415283 
	C946.935425,983.701782 950.694763,976.421448 948.790771,965.494812 
M432.463989,888.280029 
	C386.184021,889.428528 339.903778,890.566956 293.624939,891.758606 
	C291.530334,891.812500 288.812561,891.611816 287.463135,892.777710 
	C278.595856,900.438477 270.024963,908.442322 260.735626,916.900391 
	C263.975464,916.900391 266.248383,916.998230 268.510895,916.886108 
	C332.715820,913.704529 396.789032,907.691040 461.155029,907.925415 
	C462.721649,907.931152 464.667603,907.675537 465.798737,906.756592 
	C474.144867,899.976074 482.328827,892.995850 491.212677,885.533447 
	C471.560760,886.447449 452.495148,887.334229 432.463989,888.280029 
z"/>
<path fill="#FDA300" opacity="1.000000" stroke="none" 
	d="
M1.000001,1135.468628 
	C35.861233,1132.295654 70.707932,1129.382812 105.588165,1126.951172 
	C134.992798,1124.901001 164.436157,1123.405273 193.863495,1121.683350 
	C195.486938,1121.588379 197.120758,1121.671021 198.796371,1121.671021 
	C195.720413,1173.247192 189.288589,1224.314697 190.526550,1276.430420 
	C190.001221,1276.476562 188.271957,1276.711060 186.536804,1276.769165 
	C142.089905,1278.258179 97.635956,1279.562378 53.198277,1281.286621 
	C36.066406,1281.951538 18.971287,1283.563477 1.429711,1284.871948 
	C1.000000,1235.312378 1.000000,1185.624878 1.000001,1135.468628 
M95.449196,1224.019043 
	C105.322533,1229.284424 111.842354,1237.294067 115.465645,1247.872314 
	C116.748955,1251.618896 118.423958,1255.326294 120.513145,1258.682495 
	C125.093796,1266.041016 132.808945,1268.696777 139.835281,1264.564087 
	C147.254181,1260.200928 154.324387,1255.085327 160.946289,1249.576416 
	C166.364105,1245.069214 164.982422,1239.059692 158.161453,1237.107178 
	C153.133087,1235.667603 147.682159,1235.128296 142.429749,1235.182495 
	C134.554535,1235.263550 128.905212,1231.987549 123.887695,1226.205811 
	C118.132614,1219.574097 111.812157,1213.428467 105.633308,1207.174438 
	C104.786194,1206.317139 103.340256,1206.051514 102.171585,1205.511841 
	C105.743027,1203.697998 108.036705,1203.308838 110.328148,1202.906860 
	C120.651779,1201.095825 130.518295,1197.752808 138.315521,1190.688965 
	C142.703568,1186.713623 147.174500,1181.587646 148.877625,1176.128174 
	C153.620972,1160.923218 142.296814,1144.914795 125.310959,1141.016968 
	C107.869278,1137.014038 90.547882,1138.489136 73.331932,1142.298828 
	C66.785988,1143.747437 60.742458,1145.976685 54.111183,1141.437744 
	C50.846802,1139.203247 45.913132,1139.963745 43.070927,1144.207275 
	C40.681728,1147.774536 41.422562,1152.160400 45.144180,1155.929443 
	C46.417374,1157.218872 47.842472,1158.485962 49.432812,1159.310791 
	C54.357544,1161.865723 56.177692,1165.818848 55.677845,1171.226074 
	C53.885811,1190.611816 52.667122,1210.068115 50.171696,1229.360718 
	C49.385750,1235.437012 45.400803,1241.145020 42.632172,1246.902466 
	C40.922352,1250.457886 38.124352,1253.583008 36.906734,1257.262817 
	C34.403450,1264.827759 39.301907,1271.208618 47.139637,1269.968140 
	C58.108448,1268.232178 68.916321,1268.364136 79.923645,1269.175903 
	C90.110268,1269.927246 94.859436,1262.261475 90.319664,1253.060913 
	C88.201263,1248.767578 85.174622,1244.921997 82.555992,1240.875977 
	C77.373253,1232.868042 76.065308,1224.136475 77.392700,1213.885376 
	C83.621986,1217.364136 89.229012,1220.495483 95.449196,1224.019043 
z"/>
<path fill="#E03F31" opacity="1.000000" stroke="none" 
	d="
M0.999999,935.468628 
	C19.912470,933.524597 38.827511,930.780945 57.736916,930.819275 
	C108.034424,930.921265 158.329285,932.235901 208.625793,933.030701 
	C215.762909,933.143494 222.903351,933.046326 230.324463,933.046326 
	C225.190292,974.306763 225.757324,1015.075623 224.950211,1056.521240 
	C217.993134,1057.038452 211.088013,1057.903320 204.171356,1058.008301 
	C162.199005,1058.645508 120.221405,1058.958374 78.250908,1059.687744 
	C52.782955,1060.130127 27.324650,1061.127441 1.431004,1061.937744 
	C1.000000,1019.979126 1.000000,977.958191 0.999999,935.468628 
M168.250473,1023.592163 
	C169.128357,1009.978333 173.136505,997.157227 178.080170,984.563538 
	C181.450119,975.978943 186.253418,968.632935 194.523514,963.889648 
	C197.767960,962.028748 200.571060,959.379883 199.839569,955.062927 
	C199.086655,950.619507 195.671936,948.446716 191.708252,948.106384 
	C179.956360,947.097107 168.170044,946.270569 156.384674,946.053833 
	C154.023071,946.010437 150.307831,948.523376 149.559860,950.673035 
	C148.719604,953.087708 149.789108,956.957397 151.397079,959.221680 
	C153.172745,961.722107 156.501495,963.119629 158.886063,964.807983 
	C153.318314,977.798035 147.724167,990.849670 142.219925,1003.691589 
	C139.629242,996.570984 137.042419,989.024231 134.125732,981.607239 
	C132.355774,977.106201 132.419205,973.786743 136.634583,970.287109 
	C141.857758,965.950745 141.103607,959.823364 134.976776,957.547913 
	C123.460556,953.270874 111.575005,953.288635 99.803093,957.114746 
	C99.341232,957.264893 98.932114,957.598328 98.520561,957.878906 
	C92.461044,962.009460 92.416092,968.113525 98.668854,971.870178 
	C101.556160,973.604919 104.883278,974.607544 108.587471,976.188110 
	C98.165939,990.750183 87.892395,1005.105469 77.274094,1019.942505 
	C76.086227,1018.125549 75.589134,1017.616577 75.379974,1017.008606 
	C69.703873,1000.508362 63.994823,984.018555 58.544739,967.443604 
	C58.178459,966.329651 59.489273,964.245300 60.569244,963.157715 
	C63.206356,960.502258 65.737251,957.213562 63.699951,953.988464 
	C62.125637,951.496277 58.393162,949.416382 55.365162,948.997803 
	C49.640076,948.206421 43.728951,948.624817 37.900284,948.760986 
	C33.097794,948.873169 28.240095,948.927124 23.524038,949.711426 
	C19.694098,950.348511 16.938593,952.816833 16.699236,957.188843 
	C16.454407,961.660767 18.831501,964.168762 22.641689,966.050781 
	C24.581963,967.009033 26.630301,968.550232 27.681803,970.374390 
	C33.826614,981.034241 40.207920,991.608887 45.502777,1002.693115 
	C50.688854,1013.549622 54.672005,1024.980713 59.168079,1036.122314 
	C56.883678,1037.425903 55.422806,1038.210205 54.010601,1039.073975 
	C47.536617,1043.034058 44.868645,1047.069824 46.048576,1051.059570 
	C47.317158,1055.349121 51.815754,1057.280884 59.581757,1056.963135 
	C69.343025,1056.563721 79.105507,1056.189087 88.869286,1055.857178 
	C96.488670,1055.598022 99.702507,1050.646729 95.795616,1044.173584 
	C93.342819,1040.109497 93.610329,1036.784546 95.825233,1033.046509 
	C103.121719,1020.732300 110.371681,1008.390503 117.663094,996.073242 
	C117.855423,995.748352 118.319160,995.584106 118.936264,995.146362 
	C124.384232,1007.182678 129.657806,1019.028076 135.131912,1030.780029 
	C136.377701,1033.454468 135.733627,1034.772461 133.546402,1036.561523 
	C130.755371,1038.844482 128.084961,1041.546753 126.180923,1044.581665 
	C122.950600,1049.730591 125.780434,1054.825195 131.814377,1055.227783 
	C134.624374,1055.415161 137.479813,1055.228760 140.294632,1054.982666 
	C151.203842,1054.029053 162.143066,1053.262573 172.983597,1051.784424 
	C175.851761,1051.393433 179.732666,1049.267090 180.731155,1046.912476 
	C181.723099,1044.573242 180.114532,1040.732300 178.792526,1037.956543 
	C177.964996,1036.219116 175.745865,1034.592773 173.825943,1034.034058 
	C168.683548,1032.537598 167.758163,1029.028076 168.250473,1023.592163 
z"/>
<path fill="#FDA300" opacity="1.000000" stroke="none" 
	d="
M1.000002,1077.468750 
	C7.775248,1076.610107 14.548788,1075.921021 21.326033,1075.882446 
	C49.806259,1075.720337 78.287621,1075.706787 106.768517,1075.724487 
	C152.530960,1075.752808 198.264725,1075.097290 245.164215,1070.208740 
	C239.909241,1073.719727 235.574295,1076.402222 231.472580,1079.403320 
	C224.088943,1084.805664 216.818207,1090.364014 209.565582,1095.942017 
	C208.129990,1097.046143 206.375839,1098.315308 205.820099,1099.881348 
	C203.689240,1105.885864 198.930939,1105.803711 193.821106,1106.110107 
	C148.428864,1108.832642 103.039803,1111.617676 57.664150,1114.602417 
	C39.057114,1115.826416 20.485180,1117.584106 1.448639,1119.049561 
	C1.000000,1105.312378 1.000000,1091.624878 1.000002,1077.468750 
z"/>
<path fill="#E03F31" opacity="1.000000" stroke="none" 
	d="
M1.000001,898.468567 
	C34.097923,897.033020 67.193428,895.972107 100.294319,895.120300 
	C153.380661,893.754150 206.470535,892.525574 259.559082,891.245361 
	C261.149567,891.206970 262.741821,891.240601 265.926666,891.240601 
	C261.664520,895.155334 258.483917,897.950195 255.447693,900.893921 
	C250.434174,905.754944 245.650116,910.863159 240.469116,915.534241 
	C238.968719,916.886841 236.424927,917.787231 234.389511,917.734619 
	C207.428314,917.036865 180.474930,916.043091 153.514740,915.299072 
	C110.060890,914.100037 66.607780,913.721863 23.198151,916.645752 
	C16.067003,917.126038 8.976894,918.215637 1.433910,919.011841 
	C1.000000,912.312378 1.000000,905.624695 1.000001,898.468567 
z"/>
<path fill="#06007E" opacity="1.000000" stroke="none" 
	d="
M294.029175,1272.035400 
	C265.968933,1273.328857 238.395218,1274.616821 210.820572,1275.884766 
	C209.034073,1275.966919 207.240540,1275.895508 205.649811,1275.895508 
	C205.714310,1223.886475 210.744431,1172.681030 214.700882,1121.100098 
	C219.657425,1120.742065 223.765411,1120.223755 227.877731,1120.186768 
	C245.539719,1120.027344 263.203430,1120.066040 280.865692,1119.928345 
	C321.504761,1119.611450 362.143799,1119.271484 402.781891,1118.850464 
	C411.262268,1118.762573 419.738312,1118.273193 428.217133,1117.993896 
	C430.003448,1117.934937 431.793335,1117.985352 434.193024,1117.985352 
	C428.876617,1142.693726 428.634094,1167.118652 429.138092,1191.522339 
	C429.638672,1215.760742 430.960999,1239.982178 431.944489,1264.753174 
	C428.880463,1265.060059 424.989563,1265.625854 421.080597,1265.810913 
	C403.633698,1266.637573 386.177399,1267.270142 368.732422,1268.132812 
	C343.989807,1269.356445 319.254120,1270.720947 294.029175,1272.035400 
M299.508911,1146.994629 
	C299.407227,1139.314941 294.519592,1133.494385 285.501648,1132.247559 
	C277.484314,1131.139160 269.167969,1130.433105 261.195099,1131.362915 
	C255.584457,1132.017212 249.746536,1134.891602 245.045319,1138.231812 
	C237.334946,1143.710083 239.105225,1152.576782 248.078308,1155.808716 
	C250.519852,1156.687988 253.259689,1156.810791 255.882965,1157.088745 
	C257.646027,1157.275391 259.444916,1157.124146 261.461700,1157.124146 
	C261.936462,1169.817139 262.003693,1182.097778 262.967712,1194.307495 
	C263.853058,1205.520630 264.932922,1216.825195 267.311737,1227.788940 
	C270.878113,1244.225830 279.811554,1257.015503 297.064331,1261.324707 
	C303.863831,1263.022949 311.220856,1263.134644 318.294434,1262.932495 
	C327.929230,1262.657349 335.831116,1258.324219 341.496613,1250.285034 
	C350.222931,1237.902710 351.436493,1223.446045 353.016876,1209.064941 
	C354.266144,1197.696655 355.621826,1186.339722 357.017792,1174.988281 
	C357.827759,1168.401855 360.975037,1163.795532 367.444855,1161.052734 
	C373.616943,1158.436279 375.788513,1152.665283 373.726562,1146.553467 
	C371.889709,1141.108765 367.808624,1137.254639 362.427612,1136.174072 
	C354.190155,1134.519775 345.751862,1133.596191 337.355042,1133.093750 
	C331.119354,1132.720581 324.897095,1134.660278 322.407501,1140.926270 
	C319.747314,1147.621582 323.952148,1152.462402 329.364868,1155.816772 
	C335.517822,1159.629883 336.945160,1165.085449 335.997894,1171.687378 
	C335.691650,1173.821777 335.440125,1175.973145 334.970337,1178.073486 
	C332.683899,1188.295654 330.571930,1198.609253 323.906677,1207.151367 
	C318.696167,1213.829224 311.597839,1215.955933 303.485535,1214.978760 
	C297.404785,1214.246460 294.296906,1209.769409 292.437714,1204.620972 
	C287.384827,1190.629028 286.995453,1175.975098 287.402710,1161.344238 
	C287.461121,1159.246094 290.018402,1156.415405 292.135681,1155.357788 
	C295.654388,1153.599731 298.407715,1151.701172 299.508911,1146.994629 
z"/>
<path fill="#FDFD0D" opacity="1.000000" stroke="none" 
	d="
M292.191833,1049.953369 
	C274.994751,1051.570801 258.255157,1053.147705 241.153244,1054.758789 
	C241.019409,1053.377441 240.759949,1052.124268 240.797562,1050.880005 
	C241.798950,1017.738831 242.766586,984.596375 243.929291,951.460754 
	C244.097549,946.665649 245.264038,941.909241 245.896942,937.125427 
	C246.257309,934.401489 247.499207,933.237061 250.450272,933.101746 
	C316.860168,930.058167 383.265381,926.911987 449.672241,923.801086 
	C451.640472,923.708862 453.616821,923.789490 455.818909,923.789490 
	C455.818909,963.320740 455.818909,1002.441711 455.818909,1042.306519 
	C401.778839,1041.467773 347.167908,1044.783813 292.191833,1049.953369 
M283.565948,1044.126953 
	C287.103943,1044.664673 290.710968,1045.927612 294.166382,1045.598511 
	C303.071503,1044.750488 311.909302,1043.196411 320.774445,1041.927490 
	C325.971344,1041.183716 328.094635,1036.952637 325.321686,1032.444946 
	C324.208771,1030.635620 322.137665,1029.381958 321.166870,1027.527832 
	C320.012970,1025.323975 318.601471,1022.571106 318.998413,1020.360962 
	C320.490265,1012.054321 325.591095,1006.281982 333.568726,1003.510010 
	C339.773285,1001.354187 345.344177,1004.481262 347.166962,1010.788391 
	C348.756073,1016.287109 348.223145,1021.624329 345.456909,1026.713501 
	C344.190887,1029.042603 342.780243,1031.360474 341.972626,1033.857300 
	C340.339111,1038.907104 342.574585,1042.138428 347.797424,1042.288086 
	C350.765350,1042.373047 353.746704,1041.702759 356.730225,1041.589722 
	C363.987671,1041.314941 371.249146,1041.109375 378.510803,1041.008667 
	C380.322266,1040.983643 382.134033,1041.585327 383.957214,1041.682861 
	C387.841553,1041.890747 391.953674,1041.037598 393.173615,1037.245972 
	C394.113525,1034.324829 393.516693,1030.423584 392.348724,1027.450806 
	C391.252808,1024.661621 388.451080,1022.565979 386.505829,1020.082153 
	C382.626343,1015.128601 377.834473,1010.588013 375.185425,1005.034485 
	C369.482391,993.078369 364.859589,980.604370 359.870239,968.311646 
	C357.343597,962.086548 354.981323,955.794678 352.392303,949.141174 
	C354.313599,948.791321 355.428009,948.531128 356.557343,948.393250 
	C360.225250,947.945251 364.288147,947.816589 365.055969,943.119324 
	C365.895477,937.983154 362.261536,935.435730 358.223236,934.015991 
	C354.341766,932.651306 350.177277,932.022522 346.095184,931.311218 
	C335.588379,929.480408 325.886353,931.514038 317.382660,938.068237 
	C314.014740,940.664062 311.176910,943.899536 312.594269,948.702332 
	C314.069580,953.701721 318.261078,954.213806 322.593536,954.323303 
	C323.215363,954.338989 323.835327,954.429016 324.946228,954.528564 
	C324.021118,956.602112 323.269958,958.402466 322.426025,960.158203 
	C317.104797,971.228760 311.720337,982.269104 306.438904,993.358521 
	C300.055115,1006.762756 295.599915,1021.215210 282.634766,1030.646240 
	C277.923767,1034.073120 278.728088,1038.922974 283.565948,1044.126953 
z"/>
<path fill="#00FC00" opacity="1.000000" stroke="none" 
	d="
M860.227112,1037.088135 
	C816.955872,1038.700806 774.158081,1040.255371 731.367554,1041.991333 
	C728.355835,1042.113647 725.409912,1043.619263 722.410706,1044.393555 
	C721.020813,1044.752441 719.573792,1045.122559 718.156799,1045.107178 
	C705.527405,1044.969727 692.898804,1044.745728 680.269958,1044.552002 
	C679.130493,1044.534546 677.990417,1044.549683 675.989502,1044.549683 
	C677.233704,1004.051880 678.469421,963.828125 679.736877,922.573486 
	C748.349243,922.573486 816.532593,922.573486 885.635437,922.573486 
	C887.828308,960.200256 889.996521,997.403381 892.205627,1035.308105 
	C881.510254,1035.907593 871.106262,1036.490723 860.227112,1037.088135 
M805.111145,1010.394531 
	C792.960571,1000.644653 786.373840,988.076965 786.355652,972.410400 
	C786.352783,969.950378 787.093323,966.502747 788.787964,965.200378 
	C795.728455,959.865784 802.622986,954.208313 811.924500,953.174744 
	C818.468018,952.447693 821.865417,949.324158 822.279480,944.339478 
	C822.763550,938.512634 820.198547,934.446289 813.258789,933.202148 
	C804.973999,931.716858 796.429504,930.766357 788.038452,931.007507 
	C776.266724,931.345764 772.319458,939.282593 778.151978,949.945740 
	C765.645264,956.047058 753.159607,962.138123 739.874634,968.619141 
	C740.078613,959.834229 740.073242,952.460388 748.345215,947.839172 
	C750.686707,946.531067 752.980713,942.505676 752.750061,939.956848 
	C752.513184,937.338806 749.594543,933.618896 747.082703,932.833374 
	C741.979004,931.237549 736.354309,930.772156 730.952393,930.816406 
	C725.549561,930.860596 719.863708,931.253845 714.827881,933.005798 
	C707.323120,935.616638 706.382141,944.196045 713.241638,947.994141 
	C718.213196,950.746948 718.917542,954.442932 718.635254,958.955322 
	C717.638000,974.894653 716.429321,990.820740 715.346313,1006.754944 
	C715.010071,1011.702209 713.044373,1015.637939 708.944519,1018.577271 
	C705.772156,1020.851562 703.087769,1024.236450 705.254944,1027.861328 
	C706.772583,1030.399658 710.432861,1032.840088 713.357056,1033.135010 
	C722.603577,1034.067505 731.952637,1034.122559 741.264709,1034.200439 
	C745.244202,1034.233765 749.040344,1032.975098 750.073975,1028.404053 
	C751.131042,1023.729370 748.719177,1020.176392 744.577515,1019.020569 
	C737.985291,1017.180908 737.353821,1012.803833 737.975952,1007.283203 
	C738.199280,1005.302185 737.861511,1003.215210 738.332397,1001.313416 
	C739.475098,996.698486 739.662781,991.005615 742.536926,987.830566 
	C749.138611,980.537842 758.286560,976.506287 767.683289,972.355103 
	C768.277039,974.413635 768.861511,975.955933 769.158997,977.551697 
	C770.836243,986.549744 772.331421,995.583130 774.115845,1004.559326 
	C775.313110,1010.581726 775.167053,1015.876038 770.113403,1020.492126 
	C767.102234,1023.242615 766.632019,1027.406860 768.622192,1031.126343 
	C770.626587,1034.872437 774.501160,1035.831055 778.177124,1034.792236 
	C787.627136,1032.121704 797.005066,1033.566162 806.436890,1034.400146 
	C808.243286,1034.559937 810.103394,1034.561279 811.898193,1034.326416 
	C819.220581,1033.368408 821.375305,1028.813721 816.862488,1022.884521 
	C813.559998,1018.545410 809.401123,1014.858093 805.111145,1010.394531 
z"/>
<path fill="#FDFDFD" opacity="1.000000" stroke="none" 
	d="
M662.473267,972.924927 
	C661.800354,997.189941 661.166687,1020.967224 660.517517,1045.327881 
	C597.951782,1044.541138 535.546326,1043.756470 472.501953,1042.963745 
	C470.135651,1003.032166 470.101898,963.397644 471.271301,923.257202 
	C535.988464,923.257202 599.717224,923.257202 664.232483,923.257202 
	C663.658569,939.667603 663.085571,956.052429 662.473267,972.924927 
M589.612488,1031.503418 
	C596.254333,1031.982788 600.170776,1028.104004 601.704407,1022.456665 
	C603.694092,1015.130005 605.171204,1007.560425 605.833374,1000.004700 
	C606.567078,991.632263 599.441284,984.427917 590.951111,983.751831 
	C583.356812,983.147095 578.418640,987.559265 577.466125,997.009155 
	C576.941406,1002.214355 574.708679,1003.941528 569.887573,1003.716492 
	C555.929138,1003.064819 541.958557,1002.647034 528.008301,1001.860107 
	C521.737671,1001.506287 519.716980,998.581787 520.419495,992.195068 
	C521.601257,981.452026 522.803040,970.710938 523.932617,959.962341 
	C524.953613,950.247375 524.910889,950.566956 534.482605,950.716187 
	C537.360413,950.761108 541.327332,949.195251 542.861267,947.009766 
	C544.251038,945.029785 543.784607,940.898682 542.757385,938.251160 
	C540.755981,933.093018 535.892883,930.690002 530.873413,929.181396 
	C521.116333,926.248840 511.193726,926.114502 501.314514,928.558044 
	C493.928772,930.384888 486.246918,931.716125 480.581421,937.509033 
	C477.613190,940.544006 475.888794,944.093872 477.946045,948.338562 
	C479.957947,952.489624 483.607178,953.746338 487.939606,953.244141 
	C490.692902,952.925049 493.416718,952.351624 496.347961,951.859558 
	C496.617157,953.394592 496.991028,954.522400 496.985748,955.648376 
	C496.913757,970.953064 496.845581,986.258301 496.652802,1001.561768 
	C496.562622,1008.720154 494.703644,1015.254700 489.908264,1020.916992 
	C486.871246,1024.503052 485.447296,1028.800171 488.207062,1033.343018 
	C491.047272,1038.017944 495.732208,1038.443359 500.118073,1037.046509 
	C506.071350,1035.150513 511.923828,1032.662109 517.437561,1029.713623 
	C534.201660,1020.748779 551.327148,1018.858887 569.343018,1025.538086 
	C575.692688,1027.892090 582.318970,1029.500000 589.612488,1031.503418 
z"/>
<path fill="#D7A084" opacity="1.000000" stroke="none" 
	d="
M562.931885,1238.957642 
	C548.797668,1245.911621 534.881042,1253.373291 520.421326,1259.567627 
	C514.708374,1262.014893 507.811035,1262.136108 501.410095,1262.454468 
	C484.120056,1263.314575 466.806915,1263.711670 448.874115,1264.313599 
	C448.579834,1262.359375 448.211945,1260.467285 448.019501,1258.557495 
	C444.304626,1221.691406 443.564880,1184.748901 445.781067,1147.777100 
	C446.306519,1139.011108 448.152069,1130.322754 449.425018,1121.603882 
	C449.830750,1118.825195 451.032196,1117.332764 454.329559,1117.371826 
	C503.777863,1117.959229 553.227783,1118.410889 602.677002,1118.929077 
	C604.637451,1118.949585 606.594360,1119.311890 609.065552,1119.568237 
	C609.065552,1121.610962 609.043030,1123.391113 609.068909,1125.170654 
	C609.495239,1154.477539 609.955872,1183.784058 610.277588,1213.092163 
	C610.294250,1214.608276 609.553955,1216.995117 608.459351,1217.529785 
	C594.589478,1224.304688 580.589844,1230.813843 566.300903,1237.188110 
	C565.978516,1236.985596 566.024780,1237.030396 566.166687,1236.717529 
	C572.950867,1229.221191 573.561707,1222.791016 569.264404,1213.563599 
	C566.271667,1207.137695 562.522949,1200.570190 561.675903,1193.747559 
	C560.184937,1181.738892 560.512268,1169.488281 560.372681,1157.335815 
	C560.314697,1152.284668 562.085876,1148.266479 568.148682,1147.612305 
	C570.192688,1147.391602 572.286987,1146.256470 574.048523,1145.076660 
	C578.140503,1142.335938 578.404907,1137.702393 574.605896,1134.589355 
	C572.846802,1133.147949 570.640137,1131.491699 568.542908,1131.353516 
	C558.778931,1130.710693 548.973206,1130.188599 539.201477,1130.422119 
	C535.176941,1130.518066 531.623291,1133.193848 530.862244,1137.822876 
	C530.136963,1142.233643 532.707703,1145.022583 536.061096,1147.281006 
	C536.888611,1147.838257 537.717651,1148.432983 538.626465,1148.822632 
	C542.056946,1150.292969 543.148132,1152.934692 542.790466,1156.482056 
	C541.621704,1168.075317 540.554626,1179.678833 539.344849,1191.267700 
	C538.904602,1195.485107 538.173096,1199.671997 537.515503,1204.286499 
	C529.449524,1200.816284 524.430176,1195.094604 521.267212,1188.012939 
	C518.025269,1180.754150 515.527954,1173.146973 512.970703,1165.602173 
	C509.785614,1156.205078 505.639221,1147.346069 498.854584,1140.014282 
	C496.409088,1137.371582 493.557495,1134.008423 490.387817,1133.331543 
	C479.617279,1131.031860 468.574432,1130.131958 457.819458,1133.661377 
	C451.129761,1135.856445 447.437042,1140.511475 447.742035,1145.248901 
	C448.054413,1150.100708 452.247040,1153.575317 459.478912,1154.969238 
	C459.969360,1155.063843 460.470459,1155.104126 460.959686,1155.203613 
	C467.501862,1156.532349 467.910278,1157.147461 467.416809,1163.759888 
	C466.450409,1176.709106 465.549683,1189.663208 464.629730,1202.615845 
	C464.050873,1210.765869 464.565369,1218.996094 455.078552,1223.610840 
	C451.040680,1225.575073 448.760620,1230.569946 450.877563,1235.775879 
	C452.935699,1240.837158 457.371216,1242.102539 462.259338,1242.286621 
	C469.246399,1242.549927 476.237488,1242.722046 483.228210,1242.869385 
	C489.704773,1243.005859 494.687622,1240.327759 496.507355,1235.839478 
	C498.433197,1231.089600 496.793091,1225.612793 491.398621,1221.396606 
	C485.464020,1216.758179 483.315247,1210.788330 483.230591,1203.536255 
	C483.135406,1195.382935 482.552643,1187.236206 482.356598,1179.082520 
	C482.206177,1172.825562 482.326660,1166.562012 482.326660,1160.301270 
	C484.421814,1161.397461 485.667633,1162.611450 486.135132,1164.074341 
	C488.547699,1171.623657 491.548462,1179.104004 492.856842,1186.859131 
	C494.761566,1198.148926 497.141327,1209.112549 503.676239,1218.693604 
	C511.414764,1230.039429 521.556946,1238.253784 535.685852,1239.332275 
	C544.743042,1240.023560 553.916077,1239.197144 563.012573,1239.025879 
	C562.988037,1239.000488 562.931885,1238.957642 562.931885,1238.957642 
z"/>
<path fill="#06007E" opacity="1.000000" stroke="none" 
	d="
M259.619629,1079.635010 
	C267.846375,1075.208740 275.597626,1070.610840 283.757660,1066.915649 
	C287.227081,1065.344482 291.536804,1065.458374 295.491302,1065.157959 
	C315.049927,1063.672607 334.628967,1062.446655 354.179443,1060.865356 
	C392.231537,1057.787598 430.343933,1057.587891 468.476196,1058.172119 
	C474.285309,1058.261108 480.088654,1058.726196 487.104156,1059.077881 
	C483.553741,1061.965698 480.564117,1064.088989 477.933533,1066.589966 
	C466.123230,1077.818848 454.447632,1089.189697 442.613068,1100.392578 
	C441.565063,1101.384644 439.731384,1101.970337 438.243347,1102.009277 
	C421.266907,1102.454346 404.288208,1102.910156 387.307343,1103.067139 
	C340.995300,1103.495361 294.681976,1103.789795 248.369003,1104.115479 
	C240.278183,1104.172485 232.186600,1104.123535 222.259766,1104.123535 
	C235.321014,1095.558838 247.315277,1087.693848 259.619629,1079.635010 
z"/>
<path fill="#8B2D71" opacity="1.000000" stroke="none" 
	d="
M714.178284,1115.180542 
	C714.054688,1131.645996 713.774597,1147.632935 713.922363,1163.615845 
	C713.962280,1167.937500 712.450500,1170.233521 708.654419,1172.003662 
	C685.298523,1182.894775 662.014282,1193.939697 638.721252,1204.965210 
	C634.697754,1206.869629 630.746033,1208.926025 626.179626,1211.202026 
	C625.865112,1205.334351 625.389160,1200.108276 625.337769,1194.877808 
	C625.090881,1169.735596 624.898193,1144.592163 624.908142,1119.449219 
	C624.908875,1117.575317 626.161194,1114.732422 627.659851,1113.972046 
	C656.282898,1099.449829 685.029724,1085.171509 713.757996,1070.856812 
	C714.175110,1070.649048 714.681702,1070.620605 715.867737,1070.334473 
	C715.298828,1085.312378 714.740723,1100.006470 714.178284,1115.180542 
z"/>
<path fill="#D7A084" opacity="1.000000" stroke="none" 
	d="
M646.030884,1060.862427 
	C664.416809,1060.864502 682.307678,1060.864502 700.198547,1060.864502 
	C700.269958,1060.560669 700.341370,1060.256714 700.412781,1059.952881 
	C699.356140,1060.604004 698.342712,1061.341919 697.236450,1061.893555 
	C670.032654,1075.457520 642.829529,1089.023193 615.581848,1102.498657 
	C613.886108,1103.337280 611.784241,1103.962158 609.943298,1103.810913 
	C562.390991,1099.904663 514.751160,1101.874634 467.146790,1101.574585 
	C466.013977,1101.567505 464.881104,1101.573730 462.990082,1101.573730 
	C463.854218,1100.368164 464.237518,1099.514160 464.884277,1098.978027 
	C480.115570,1086.351562 495.304871,1073.671753 510.723145,1061.277100 
	C512.548584,1059.809692 515.660645,1059.383179 518.167480,1059.406738 
	C560.624451,1059.803589 603.080017,1060.348267 646.030884,1060.862427 
z"/>
<path fill="#00FC00" opacity="1.000000" stroke="none" 
	d="
M795.653076,906.673462 
	C760.264587,906.689880 725.347717,906.689880 689.795715,906.689880 
	C691.111389,905.052917 692.132141,903.635742 693.300598,902.353210 
	C700.365479,894.598816 707.569214,886.967407 714.492004,879.088928 
	C716.789124,876.474670 719.173889,875.392517 722.649963,875.440186 
	C758.289307,875.928589 793.930298,876.319153 829.571533,876.657410 
	C860.882324,876.954651 892.194031,877.152161 923.505371,877.388000 
	C926.446594,877.410095 929.388062,877.390991 932.708435,878.465820 
	C927.079346,882.700256 921.485046,886.982117 915.809631,891.153564 
	C911.652405,894.208984 907.005005,896.706177 903.256714,900.185425 
	C896.648193,906.319702 889.241943,907.345947 880.487000,907.053833 
	C854.527527,906.187683 828.535950,906.267517 802.556458,906.035950 
	C800.414551,906.016846 798.268738,906.439636 795.653076,906.673462 
z"/>
<path fill="#FDFDFD" opacity="1.000000" stroke="none" 
	d="
M589.483032,907.163086 
	C556.089600,907.160034 523.163696,907.160034 489.264008,907.160034 
	C497.887207,900.522949 505.953033,894.725342 513.509644,888.326538 
	C517.325745,885.095093 521.201965,883.995544 526.062134,883.740723 
	C556.475769,882.146729 586.861938,880.015808 617.279358,878.511292 
	C643.361572,877.221130 669.473450,876.530457 696.562500,875.538452 
	C695.212158,877.274536 694.521973,878.268982 693.725403,879.169250 
	C686.448669,887.393860 679.004639,895.477417 671.952393,903.889648 
	C669.779236,906.481873 667.643677,907.446533 664.373474,907.423889 
	C639.566406,907.251892 614.758362,907.232849 589.483032,907.163086 
z"/>
<path fill="#00FC00" opacity="1.000000" stroke="none" 
	d="
M948.799500,965.992798 
	C950.694763,976.421448 946.935425,983.701782 939.482239,990.415283 
	C928.850952,999.991516 919.151733,1010.602173 909.041504,1020.758240 
	C908.601440,1021.200317 908.033325,1021.514954 906.864929,1022.374329 
	C906.446594,1014.996521 906.090942,1008.245239 905.676392,1001.497559 
	C904.123230,976.218201 902.627991,950.934692 900.895020,925.667603 
	C900.660461,922.247864 901.543701,920.256226 904.318909,918.269531 
	C917.860168,908.576172 931.235107,898.650696 944.685425,888.830017 
	C945.691406,888.095520 946.827515,887.539246 948.790771,886.372681 
	C948.790771,913.319214 948.790771,939.407043 948.799500,965.992798 
z"/>
<path fill="#FDFD0D" opacity="1.000000" stroke="none" 
	d="
M432.946747,888.250488 
	C452.495148,887.334229 471.560760,886.447449 491.212677,885.533447 
	C482.328827,892.995850 474.144867,899.976074 465.798737,906.756592 
	C464.667603,907.675537 462.721649,907.931152 461.155029,907.925415 
	C396.789032,907.691040 332.715820,913.704529 268.510895,916.886108 
	C266.248383,916.998230 263.975464,916.900391 260.735626,916.900391 
	C270.024963,908.442322 278.595856,900.438477 287.463135,892.777710 
	C288.812561,891.611816 291.530334,891.812500 293.624939,891.758606 
	C339.903778,890.566956 386.184021,889.428528 432.946747,888.250488 
z"/>
<path fill="#D7A084" opacity="1.000000" stroke="none" 
	d="
M564.945435,1237.956055 
	C564.474121,1238.255859 564.002747,1238.555542 563.231628,1238.906494 
	C562.931885,1238.957642 562.988037,1239.000488 563.124023,1238.737793 
	C563.855774,1238.331421 564.451599,1238.187500 565.022339,1238.021362 
	C564.997192,1237.999023 564.945435,1237.956055 564.945435,1237.956055 
z"/>
<path fill="#D7A084" opacity="1.000000" stroke="none" 
	d="
M565.952759,1236.966309 
	C565.821777,1237.263184 565.716675,1237.579468 565.278503,1237.925781 
	C564.945435,1237.956055 564.997192,1237.999023 565.034912,1237.748413 
	C565.390015,1237.342041 565.707397,1237.186157 566.024780,1237.030396 
	C566.024780,1237.030396 565.978516,1236.985596 565.952759,1236.966309 
z"/>
<path fill="#020100" opacity="1.000000" stroke="none" 
	d="
M95.142616,1223.822998 
	C89.229012,1220.495483 83.621986,1217.364136 77.392700,1213.885376 
	C76.065308,1224.136475 77.373253,1232.868042 82.555992,1240.875977 
	C85.174622,1244.921997 88.201263,1248.767578 90.319664,1253.060913 
	C94.859436,1262.261475 90.110268,1269.927246 79.923645,1269.175903 
	C68.916321,1268.364136 58.108448,1268.232178 47.139637,1269.968140 
	C39.301907,1271.208618 34.403450,1264.827759 36.906734,1257.262817 
	C38.124352,1253.583008 40.922352,1250.457886 42.632172,1246.902466 
	C45.400803,1241.145020 49.385750,1235.437012 50.171696,1229.360718 
	C52.667122,1210.068115 53.885811,1190.611816 55.677845,1171.226074 
	C56.177692,1165.818848 54.357544,1161.865723 49.432812,1159.310791 
	C47.842472,1158.485962 46.417374,1157.218872 45.144180,1155.929443 
	C41.422562,1152.160400 40.681728,1147.774536 43.070927,1144.207275 
	C45.913132,1139.963745 50.846802,1139.203247 54.111183,1141.437744 
	C60.742458,1145.976685 66.785988,1143.747437 73.331932,1142.298828 
	C90.547882,1138.489136 107.869278,1137.014038 125.310959,1141.016968 
	C142.296814,1144.914795 153.620972,1160.923218 148.877625,1176.128174 
	C147.174500,1181.587646 142.703568,1186.713623 138.315521,1190.688965 
	C130.518295,1197.752808 120.651779,1201.095825 110.328148,1202.906860 
	C108.036705,1203.308838 105.743027,1203.697998 102.171585,1205.511841 
	C103.340256,1206.051514 104.786194,1206.317139 105.633308,1207.174438 
	C111.812157,1213.428467 118.132614,1219.574097 123.887695,1226.205811 
	C128.905212,1231.987549 134.554535,1235.263550 142.429749,1235.182495 
	C147.682159,1235.128296 153.133087,1235.667603 158.161453,1237.107178 
	C164.982422,1239.059692 166.364105,1245.069214 160.946289,1249.576416 
	C154.324387,1255.085327 147.254181,1260.200928 139.835281,1264.564087 
	C132.808945,1268.696777 125.093796,1266.041016 120.513145,1258.682495 
	C118.423958,1255.326294 116.748955,1251.618896 115.465645,1247.872314 
	C111.842354,1237.294067 105.322533,1229.284424 95.142616,1223.822998 
M105.438866,1164.902710 
	C97.246040,1161.775391 88.931084,1161.491943 79.885017,1163.891602 
	C79.288391,1171.970581 78.684166,1180.152466 77.988167,1189.577148 
	C88.276321,1187.875244 97.733543,1186.992310 106.795166,1184.606689 
	C114.760933,1182.509644 116.178864,1173.882080 110.206024,1168.016968 
	C109.039871,1166.871826 107.518654,1166.088135 105.438866,1164.902710 
z"/>
<path fill="#020100" opacity="1.000000" stroke="none" 
	d="
M168.248596,1024.035645 
	C167.758163,1029.028076 168.683548,1032.537598 173.825943,1034.034058 
	C175.745865,1034.592773 177.964996,1036.219116 178.792526,1037.956543 
	C180.114532,1040.732300 181.723099,1044.573242 180.731155,1046.912476 
	C179.732666,1049.267090 175.851761,1051.393433 172.983597,1051.784424 
	C162.143066,1053.262573 151.203842,1054.029053 140.294632,1054.982666 
	C137.479813,1055.228760 134.624374,1055.415161 131.814377,1055.227783 
	C125.780434,1054.825195 122.950600,1049.730591 126.180923,1044.581665 
	C128.084961,1041.546753 130.755371,1038.844482 133.546402,1036.561523 
	C135.733627,1034.772461 136.377701,1033.454468 135.131912,1030.780029 
	C129.657806,1019.028076 124.384232,1007.182678 118.936264,995.146362 
	C118.319160,995.584106 117.855423,995.748352 117.663094,996.073242 
	C110.371681,1008.390503 103.121719,1020.732300 95.825233,1033.046509 
	C93.610329,1036.784546 93.342819,1040.109497 95.795616,1044.173584 
	C99.702507,1050.646729 96.488670,1055.598022 88.869286,1055.857178 
	C79.105507,1056.189087 69.343025,1056.563721 59.581757,1056.963135 
	C51.815754,1057.280884 47.317158,1055.349121 46.048576,1051.059570 
	C44.868645,1047.069824 47.536617,1043.034058 54.010601,1039.073975 
	C55.422806,1038.210205 56.883678,1037.425903 59.168079,1036.122314 
	C54.672005,1024.980713 50.688854,1013.549622 45.502777,1002.693115 
	C40.207920,991.608887 33.826614,981.034241 27.681803,970.374390 
	C26.630301,968.550232 24.581963,967.009033 22.641689,966.050781 
	C18.831501,964.168762 16.454407,961.660767 16.699236,957.188843 
	C16.938593,952.816833 19.694098,950.348511 23.524038,949.711426 
	C28.240095,948.927124 33.097794,948.873169 37.900284,948.760986 
	C43.728951,948.624817 49.640076,948.206421 55.365162,948.997803 
	C58.393162,949.416382 62.125637,951.496277 63.699951,953.988464 
	C65.737251,957.213562 63.206356,960.502258 60.569244,963.157715 
	C59.489273,964.245300 58.178459,966.329651 58.544739,967.443604 
	C63.994823,984.018555 69.703873,1000.508362 75.379974,1017.008606 
	C75.589134,1017.616577 76.086227,1018.125549 77.274094,1019.942505 
	C87.892395,1005.105469 98.165939,990.750183 108.587471,976.188110 
	C104.883278,974.607544 101.556160,973.604919 98.668854,971.870178 
	C92.416092,968.113525 92.461044,962.009460 98.520561,957.878906 
	C98.932114,957.598328 99.341232,957.264893 99.803093,957.114746 
	C111.575005,953.288635 123.460556,953.270874 134.976776,957.547913 
	C141.103607,959.823364 141.857758,965.950745 136.634583,970.287109 
	C132.419205,973.786743 132.355774,977.106201 134.125732,981.607239 
	C137.042419,989.024231 139.629242,996.570984 142.219925,1003.691589 
	C147.724167,990.849670 153.318314,977.798035 158.886063,964.807983 
	C156.501495,963.119629 153.172745,961.722107 151.397079,959.221680 
	C149.789108,956.957397 148.719604,953.087708 149.559860,950.673035 
	C150.307831,948.523376 154.023071,946.010437 156.384674,946.053833 
	C168.170044,946.270569 179.956360,947.097107 191.708252,948.106384 
	C195.671936,948.446716 199.086655,950.619507 199.839569,955.062927 
	C200.571060,959.379883 197.767960,962.028748 194.523514,963.889648 
	C186.253418,968.632935 181.450119,975.978943 178.080170,984.563538 
	C173.136505,997.157227 169.128357,1009.978333 168.248596,1024.035645 
z"/>
<path fill="#000000" opacity="1.000000" stroke="none" 
	d="
M299.387024,1147.354492 
	C298.407715,1151.701172 295.654388,1153.599731 292.135681,1155.357788 
	C290.018402,1156.415405 287.461121,1159.246094 287.402710,1161.344238 
	C286.995453,1175.975098 287.384827,1190.629028 292.437714,1204.620972 
	C294.296906,1209.769409 297.404785,1214.246460 303.485535,1214.978760 
	C311.597839,1215.955933 318.696167,1213.829224 323.906677,1207.151367 
	C330.571930,1198.609253 332.683899,1188.295654 334.970337,1178.073486 
	C335.440125,1175.973145 335.691650,1173.821777 335.997894,1171.687378 
	C336.945160,1165.085449 335.517822,1159.629883 329.364868,1155.816772 
	C323.952148,1152.462402 319.747314,1147.621582 322.407501,1140.926270 
	C324.897095,1134.660278 331.119354,1132.720581 337.355042,1133.093750 
	C345.751862,1133.596191 354.190155,1134.519775 362.427612,1136.174072 
	C367.808624,1137.254639 371.889709,1141.108765 373.726562,1146.553467 
	C375.788513,1152.665283 373.616943,1158.436279 367.444855,1161.052734 
	C360.975037,1163.795532 357.827759,1168.401855 357.017792,1174.988281 
	C355.621826,1186.339722 354.266144,1197.696655 353.016876,1209.064941 
	C351.436493,1223.446045 350.222931,1237.902710 341.496613,1250.285034 
	C335.831116,1258.324219 327.929230,1262.657349 318.294434,1262.932495 
	C311.220856,1263.134644 303.863831,1263.022949 297.064331,1261.324707 
	C279.811554,1257.015503 270.878113,1244.225830 267.311737,1227.788940 
	C264.932922,1216.825195 263.853058,1205.520630 262.967712,1194.307495 
	C262.003693,1182.097778 261.936462,1169.817139 261.461700,1157.124146 
	C259.444916,1157.124146 257.646027,1157.275391 255.882965,1157.088745 
	C253.259689,1156.810791 250.519852,1156.687988 248.078308,1155.808716 
	C239.105225,1152.576782 237.334946,1143.710083 245.045319,1138.231812 
	C249.746536,1134.891602 255.584457,1132.017212 261.195099,1131.362915 
	C269.167969,1130.433105 277.484314,1131.139160 285.501648,1132.247559 
	C294.519592,1133.494385 299.407227,1139.314941 299.387024,1147.354492 
z"/>
<path fill="#020100" opacity="1.000000" stroke="none" 
	d="
M283.238342,1043.903320 
	C278.728088,1038.922974 277.923767,1034.073120 282.634766,1030.646240 
	C295.599915,1021.215210 300.055115,1006.762756 306.438904,993.358521 
	C311.720337,982.269104 317.104797,971.228760 322.426025,960.158203 
	C323.269958,958.402466 324.021118,956.602112 324.946228,954.528564 
	C323.835327,954.429016 323.215363,954.338989 322.593536,954.323303 
	C318.261078,954.213806 314.069580,953.701721 312.594269,948.702332 
	C311.176910,943.899536 314.014740,940.664062 317.382660,938.068237 
	C325.886353,931.514038 335.588379,929.480408 346.095184,931.311218 
	C350.177277,932.022522 354.341766,932.651306 358.223236,934.015991 
	C362.261536,935.435730 365.895477,937.983154 365.055969,943.119324 
	C364.288147,947.816589 360.225250,947.945251 356.557343,948.393250 
	C355.428009,948.531128 354.313599,948.791321 352.392303,949.141174 
	C354.981323,955.794678 357.343597,962.086548 359.870239,968.311646 
	C364.859589,980.604370 369.482391,993.078369 375.185425,1005.034485 
	C377.834473,1010.588013 382.626343,1015.128601 386.505829,1020.082153 
	C388.451080,1022.565979 391.252808,1024.661621 392.348724,1027.450806 
	C393.516693,1030.423584 394.113525,1034.324829 393.173615,1037.245972 
	C391.953674,1041.037598 387.841553,1041.890747 383.957214,1041.682861 
	C382.134033,1041.585327 380.322266,1040.983643 378.510803,1041.008667 
	C371.249146,1041.109375 363.987671,1041.314941 356.730225,1041.589722 
	C353.746704,1041.702759 350.765350,1042.373047 347.797424,1042.288086 
	C342.574585,1042.138428 340.339111,1038.907104 341.972626,1033.857300 
	C342.780243,1031.360474 344.190887,1029.042603 345.456909,1026.713501 
	C348.223145,1021.624329 348.756073,1016.287109 347.166962,1010.788391 
	C345.344177,1004.481262 339.773285,1001.354187 333.568726,1003.510010 
	C325.591095,1006.281982 320.490265,1012.054321 318.998413,1020.360962 
	C318.601471,1022.571106 320.012970,1025.323975 321.166870,1027.527832 
	C322.137665,1029.381958 324.208771,1030.635620 325.321686,1032.444946 
	C328.094635,1036.952637 325.971344,1041.183716 320.774445,1041.927490 
	C311.909302,1043.196411 303.071503,1044.750488 294.166382,1045.598511 
	C290.710968,1045.927612 287.103943,1044.664673 283.238342,1043.903320 
M338.013245,978.470154 
	C337.490265,976.888855 336.967285,975.307556 336.121094,972.748901 
	C334.433502,975.850891 333.300385,977.933716 331.548492,981.153931 
	C334.401581,980.272339 336.138306,979.735657 338.013245,978.470154 
z"/>
<path fill="#000000" opacity="1.000000" stroke="none" 
	d="
M805.367554,1010.637329 
	C809.401123,1014.858093 813.559998,1018.545410 816.862488,1022.884521 
	C821.375305,1028.813721 819.220581,1033.368408 811.898193,1034.326416 
	C810.103394,1034.561279 808.243286,1034.559937 806.436890,1034.400146 
	C797.005066,1033.566162 787.627136,1032.121704 778.177124,1034.792236 
	C774.501160,1035.831055 770.626587,1034.872437 768.622192,1031.126343 
	C766.632019,1027.406860 767.102234,1023.242615 770.113403,1020.492126 
	C775.167053,1015.876038 775.313110,1010.581726 774.115845,1004.559326 
	C772.331421,995.583130 770.836243,986.549744 769.158997,977.551697 
	C768.861511,975.955933 768.277039,974.413635 767.683289,972.355103 
	C758.286560,976.506287 749.138611,980.537842 742.536926,987.830566 
	C739.662781,991.005615 739.475098,996.698486 738.332397,1001.313416 
	C737.861511,1003.215210 738.199280,1005.302185 737.975952,1007.283203 
	C737.353821,1012.803833 737.985291,1017.180908 744.577515,1019.020569 
	C748.719177,1020.176392 751.131042,1023.729370 750.073975,1028.404053 
	C749.040344,1032.975098 745.244202,1034.233765 741.264709,1034.200439 
	C731.952637,1034.122559 722.603577,1034.067505 713.357056,1033.135010 
	C710.432861,1032.840088 706.772583,1030.399658 705.254944,1027.861328 
	C703.087769,1024.236450 705.772156,1020.851562 708.944519,1018.577271 
	C713.044373,1015.637939 715.010071,1011.702209 715.346313,1006.754944 
	C716.429321,990.820740 717.638000,974.894653 718.635254,958.955322 
	C718.917542,954.442932 718.213196,950.746948 713.241638,947.994141 
	C706.382141,944.196045 707.323120,935.616638 714.827881,933.005798 
	C719.863708,931.253845 725.549561,930.860596 730.952393,930.816406 
	C736.354309,930.772156 741.979004,931.237549 747.082703,932.833374 
	C749.594543,933.618896 752.513184,937.338806 752.750061,939.956848 
	C752.980713,942.505676 750.686707,946.531067 748.345215,947.839172 
	C740.073242,952.460388 740.078613,959.834229 739.874634,968.619141 
	C753.159607,962.138123 765.645264,956.047058 778.151978,949.945740 
	C772.319458,939.282593 776.266724,931.345764 788.038452,931.007507 
	C796.429504,930.766357 804.973999,931.716858 813.258789,933.202148 
	C820.198547,934.446289 822.763550,938.512634 822.279480,944.339478 
	C821.865417,949.324158 818.468018,952.447693 811.924500,953.174744 
	C802.622986,954.208313 795.728455,959.865784 788.787964,965.200378 
	C787.093323,966.502747 786.352783,969.950378 786.355652,972.410400 
	C786.373840,988.076965 792.960571,1000.644653 805.367554,1010.637329 
z"/>
<path fill="#020100" opacity="1.000000" stroke="none" 
	d="
M589.215698,1031.476074 
	C582.318970,1029.500000 575.692688,1027.892090 569.343018,1025.538086 
	C551.327148,1018.858887 534.201660,1020.748779 517.437561,1029.713623 
	C511.923828,1032.662109 506.071350,1035.150513 500.118073,1037.046509 
	C495.732208,1038.443359 491.047272,1038.017944 488.207062,1033.343018 
	C485.447296,1028.800171 486.871246,1024.503052 489.908264,1020.916992 
	C494.703644,1015.254700 496.562622,1008.720154 496.652802,1001.561768 
	C496.845581,986.258301 496.913757,970.953064 496.985748,955.648376 
	C496.991028,954.522400 496.617157,953.394592 496.347961,951.859558 
	C493.416718,952.351624 490.692902,952.925049 487.939606,953.244141 
	C483.607178,953.746338 479.957947,952.489624 477.946045,948.338562 
	C475.888794,944.093872 477.613190,940.544006 480.581421,937.509033 
	C486.246918,931.716125 493.928772,930.384888 501.314514,928.558044 
	C511.193726,926.114502 521.116333,926.248840 530.873413,929.181396 
	C535.892883,930.690002 540.755981,933.093018 542.757385,938.251160 
	C543.784607,940.898682 544.251038,945.029785 542.861267,947.009766 
	C541.327332,949.195251 537.360413,950.761108 534.482605,950.716187 
	C524.910889,950.566956 524.953613,950.247375 523.932617,959.962341 
	C522.803040,970.710938 521.601257,981.452026 520.419495,992.195068 
	C519.716980,998.581787 521.737671,1001.506287 528.008301,1001.860107 
	C541.958557,1002.647034 555.929138,1003.064819 569.887573,1003.716492 
	C574.708679,1003.941528 576.941406,1002.214355 577.466125,997.009155 
	C578.418640,987.559265 583.356812,983.147095 590.951111,983.751831 
	C599.441284,984.427917 606.567078,991.632263 605.833374,1000.004700 
	C605.171204,1007.560425 603.694092,1015.130005 601.704407,1022.456665 
	C600.170776,1028.104004 596.254333,1031.982788 589.215698,1031.476074 
z"/>
<path fill="#000000" opacity="1.000000" stroke="none" 
	d="
M566.166687,1236.717529 
	C565.707397,1237.186157 565.390015,1237.342041 565.060059,1237.770752 
	C564.451599,1238.187500 563.855774,1238.331421 563.148560,1238.763184 
	C553.916077,1239.197144 544.743042,1240.023560 535.685852,1239.332275 
	C521.556946,1238.253784 511.414764,1230.039429 503.676239,1218.693604 
	C497.141327,1209.112549 494.761566,1198.148926 492.856842,1186.859131 
	C491.548462,1179.104004 488.547699,1171.623657 486.135132,1164.074341 
	C485.667633,1162.611450 484.421814,1161.397461 482.326660,1160.301270 
	C482.326660,1166.562012 482.206177,1172.825562 482.356598,1179.082520 
	C482.552643,1187.236206 483.135406,1195.382935 483.230591,1203.536255 
	C483.315247,1210.788330 485.464020,1216.758179 491.398621,1221.396606 
	C496.793091,1225.612793 498.433197,1231.089600 496.507355,1235.839478 
	C494.687622,1240.327759 489.704773,1243.005859 483.228210,1242.869385 
	C476.237488,1242.722046 469.246399,1242.549927 462.259338,1242.286621 
	C457.371216,1242.102539 452.935699,1240.837158 450.877563,1235.775879 
	C448.760620,1230.569946 451.040680,1225.575073 455.078552,1223.610840 
	C464.565369,1218.996094 464.050873,1210.765869 464.629730,1202.615845 
	C465.549683,1189.663208 466.450409,1176.709106 467.416809,1163.759888 
	C467.910278,1157.147461 467.501862,1156.532349 460.959686,1155.203613 
	C460.470459,1155.104126 459.969360,1155.063843 459.478912,1154.969238 
	C452.247040,1153.575317 448.054413,1150.100708 447.742035,1145.248901 
	C447.437042,1140.511475 451.129761,1135.856445 457.819458,1133.661377 
	C468.574432,1130.131958 479.617279,1131.031860 490.387817,1133.331543 
	C493.557495,1134.008423 496.409088,1137.371582 498.854584,1140.014282 
	C505.639221,1147.346069 509.785614,1156.205078 512.970703,1165.602173 
	C515.527954,1173.146973 518.025269,1180.754150 521.267212,1188.012939 
	C524.430176,1195.094604 529.449524,1200.816284 537.515503,1204.286499 
	C538.173096,1199.671997 538.904602,1195.485107 539.344849,1191.267700 
	C540.554626,1179.678833 541.621704,1168.075317 542.790466,1156.482056 
	C543.148132,1152.934692 542.056946,1150.292969 538.626465,1148.822632 
	C537.717651,1148.432983 536.888611,1147.838257 536.061096,1147.281006 
	C532.707703,1145.022583 530.136963,1142.233643 530.862244,1137.822876 
	C531.623291,1133.193848 535.176941,1130.518066 539.201477,1130.422119 
	C548.973206,1130.188599 558.778931,1130.710693 568.542908,1131.353516 
	C570.640137,1131.491699 572.846802,1133.147949 574.605896,1134.589355 
	C578.404907,1137.702393 578.140503,1142.335938 574.048523,1145.076660 
	C572.286987,1146.256470 570.192688,1147.391602 568.148682,1147.612305 
	C562.085876,1148.266479 560.314697,1152.284668 560.372681,1157.335815 
	C560.512268,1169.488281 560.184937,1181.738892 561.675903,1193.747559 
	C562.522949,1200.570190 566.271667,1207.137695 569.264404,1213.563599 
	C573.561707,1222.791016 572.950867,1229.221191 566.166687,1236.717529 
z"/>
<path fill="#FDA300" opacity="1.000000" stroke="none" 
	d="
M105.800026,1165.020264 
	C107.518654,1166.088135 109.039871,1166.871826 110.206024,1168.016968 
	C116.178864,1173.882080 114.760933,1182.509644 106.795166,1184.606689 
	C97.733543,1186.992310 88.276321,1187.875244 77.988167,1189.577148 
	C78.684166,1180.152466 79.288391,1171.970581 79.885017,1163.891602 
	C88.931084,1161.491943 97.246040,1161.775391 105.800026,1165.020264 
z"/>
<path fill="#FDFD0D" opacity="1.000000" stroke="none" 
	d="
M337.944153,978.834595 
	C336.138306,979.735657 334.401581,980.272339 331.548492,981.153931 
	C333.300385,977.933716 334.433502,975.850891 336.121094,972.748901 
	C336.967285,975.307556 337.490265,976.888855 337.944153,978.834595 
z"/>
</svg>