<svg version="1.1" id="Layer_1" xmlns="http://www.w3.org/2000/svg" xmlns:xlink="http://www.w3.org/1999/xlink" x="0px" y="0px"
	 width="100%" viewBox="0 0 2000 1800" enable-background="new 0 0 2000 1800" xml:space="preserve">
<path fill="#000000" opacity="1.000000" stroke="none" 
	d="
M2001.000000,900.999939 
	C2001.000000,1200.984253 2001.000000,1500.968384 2001.000000,1800.976318 
	C1334.384155,1800.976318 667.768433,1800.976318 1.076315,1800.976318 
	C1.076315,1201.082520 1.076315,601.164917 1.076315,1.123683 
	C667.549072,1.123683 1334.098267,1.123683 2001.000000,1.123683 
	C2001.000000,269.368134 2001.000000,537.736450 2000.743896,806.860596 
	C1999.733765,806.966675 1998.932495,806.363953 1998.232422,805.660522 
	C1961.687988,768.935852 1925.252563,732.101990 1888.567261,695.518555 
	C1873.238770,680.232605 1857.483765,665.367920 1841.706909,650.541321 
	C1836.423706,645.576538 1830.471191,641.324158 1824.318726,636.335876 
	C1815.051392,644.804688 1805.646851,652.348389 1797.464966,661.042603 
	C1734.109497,728.363770 1670.988525,795.905762 1607.804688,863.388306 
	C1605.464844,865.887268 1603.224731,868.479431 1601.210327,870.724731 
	C1676.115601,936.825806 1753.963989,998.717957 1827.879395,1065.657715 
	C1833.142822,1059.695312 1838.504883,1052.879150 1844.620728,1046.824463 
	C1868.171265,1023.509094 1891.664062,1000.121155 1915.744873,977.359436 
	C1942.493530,952.075928 1969.848999,927.433838 1997.003906,902.581970 
	C1997.991455,901.678223 1999.652710,901.510559 2001.000000,900.999939 
M1807.867554,1387.499634 
	C1809.744507,1284.713623 1811.590698,1181.926880 1813.593018,1079.143311 
	C1813.689209,1074.202881 1811.228271,1071.640259 1807.435059,1068.734375 
	C1806.359009,1075.145752 1805.303955,1080.983765 1804.407227,1086.845947 
	C1796.903687,1135.901733 1789.255371,1184.936035 1781.997070,1234.028198 
	C1775.250244,1279.662231 1768.893921,1325.354370 1762.547119,1371.046143 
	C1762.293701,1372.870605 1763.344360,1375.599487 1764.739136,1376.817017 
	C1777.915771,1388.319458 1791.294556,1399.590210 1804.630493,1410.909790 
	C1805.824829,1411.923340 1807.125854,1412.811035 1807.839233,1413.350342 
	C1807.839233,1405.066772 1807.839233,1396.781860 1807.867554,1387.499634 
M1843.670288,1171.532227 
	C1841.036499,1141.516968 1838.402588,1111.501709 1835.774780,1081.553955 
	C1828.666504,1082.378174 1828.914551,1087.365967 1828.822876,1092.552124 
	C1827.064819,1191.864990 1825.223267,1291.176514 1823.414062,1390.488525 
	C1823.335815,1394.785889 1823.404053,1399.086060 1823.404053,1404.351440 
	C1824.808594,1403.140137 1825.298584,1402.772827 1825.724487,1402.341919 
	C1837.302856,1390.631348 1848.924438,1378.962524 1860.370239,1367.123657 
	C1861.520752,1365.933716 1862.244507,1363.642944 1862.073486,1361.974976 
	C1860.934814,1350.874756 1859.244873,1339.828857 1858.202271,1328.721313 
	C1853.313721,1276.637207 1848.576538,1224.538818 1843.670288,1171.532227 
z"/>
<path fill="#000000" opacity="1.000000" stroke="none" 
	d="
M2001.000000,849.000000 
	C2001.000000,854.022095 2001.000000,859.044189 2000.728394,864.723999 
	C1978.297729,886.566101 1955.863281,907.471191 1934.044312,929.000366 
	C1901.194092,961.414185 1868.765381,994.255249 1836.181396,1026.938599 
	C1831.135132,1032.000122 1828.239502,1032.378906 1822.225586,1028.323730 
	C1819.327271,1026.369507 1816.361206,1024.477539 1813.668823,1022.262085 
	C1755.922363,974.745300 1698.190552,927.210632 1640.524170,879.596863 
	C1635.099487,875.117859 1634.531494,868.848389 1638.890991,863.169128 
	C1644.871216,855.378479 1650.666992,847.350281 1657.428101,840.270264 
	C1710.474365,784.721985 1763.716187,729.360229 1816.944458,673.985962 
	C1824.046509,666.597656 1828.002563,666.599182 1835.564453,673.443909 
	C1837.293457,675.009033 1839.018433,676.585327 1840.653320,678.246826 
	C1865.775269,703.779419 1891.385498,728.855591 1915.861694,754.993408 
	C1944.754761,785.847961 1972.664185,817.623657 2001.000000,849.000000 
M1803.275635,709.774170 
	C1758.958618,756.161438 1714.596069,802.505493 1670.376831,848.985962 
	C1664.230591,855.446533 1658.791992,862.580322 1652.839844,869.622620 
	C1711.388794,917.803528 1767.462402,967.995667 1827.434326,1013.569214 
	C1847.407959,993.214294 1866.852661,973.398499 1886.537231,953.338196 
	C1861.768066,949.966553 1837.326904,946.639526 1812.651978,943.280640 
	C1813.153564,953.985718 1817.521606,963.070251 1821.575562,972.332214 
	C1822.670166,974.833130 1823.069458,979.098022 1821.666260,980.913391 
	C1819.136353,984.186462 1815.536865,981.625000 1812.815674,979.804199 
	C1800.422607,971.511963 1787.642456,962.744812 1780.662109,949.654419 
	C1774.281494,937.688477 1765.252563,934.261230 1753.454712,933.458252 
	C1752.127930,933.367981 1750.807495,933.144226 1749.492188,932.932922 
	C1744.071777,932.062561 1738.598633,931.406189 1733.274292,930.130554 
	C1731.902466,929.802002 1730.303589,927.581055 1730.138428,926.082825 
	C1730.033569,925.131897 1732.240967,923.292847 1733.667480,922.964539 
	C1735.503052,922.541992 1737.605835,923.162720 1739.574951,923.457336 
	C1749.350220,924.919983 1759.119385,926.423218 1768.261841,927.816345 
	C1768.839722,921.799683 1768.458984,915.941711 1770.166870,910.774109 
	C1771.836914,905.721313 1775.636963,901.372437 1778.807617,896.217834 
	C1761.579346,893.587463 1744.332642,890.951355 1727.084106,888.326111 
	C1725.604370,888.100830 1723.762207,888.425110 1722.711426,887.649719 
	C1721.208008,886.540344 1720.279053,884.652161 1719.104858,883.096497 
	C1720.602539,882.071899 1722.013672,880.862488 1723.635620,880.103149 
	C1724.409302,879.740784 1725.590454,880.190063 1726.575317,880.345764 
	C1747.287598,883.619751 1767.972168,887.086365 1788.728516,890.051147 
	C1793.549805,890.739746 1798.614502,889.725708 1804.913696,889.432373 
	C1801.003296,885.561096 1798.081177,883.063232 1795.630249,880.166687 
	C1788.646606,871.913147 1781.922241,863.440125 1774.928467,855.195374 
	C1773.600586,853.630066 1771.635376,851.946716 1769.742920,851.626770 
	C1758.087891,849.656616 1746.378052,847.999451 1734.665894,846.387329 
	C1731.807617,845.994019 1728.936035,845.520569 1729.139771,842.054138 
	C1729.377930,838.001343 1732.780762,838.312317 1735.604370,838.661926 
	C1742.873413,839.561951 1750.122192,840.626160 1757.374390,841.658569 
	C1762.649658,842.409546 1768.404663,844.880005 1773.049072,843.520508 
	C1777.564453,842.198792 1780.951782,836.991394 1784.809570,833.462891 
	C1791.287109,827.538330 1797.744751,821.591980 1805.043213,814.890442 
	C1790.068237,812.521118 1776.311401,810.234497 1762.516357,808.208801 
	C1755.768433,807.217957 1748.946045,806.742432 1742.164307,805.972656 
	C1739.378906,805.656494 1736.539429,804.986389 1737.064575,801.303528 
	C1737.581299,797.679871 1740.489624,797.806763 1743.269165,798.087830 
	C1743.600708,798.121338 1743.932495,798.153748 1744.262451,798.200378 
	C1763.378540,800.901367 1782.503052,803.544434 1801.607056,806.328918 
	C1812.711548,807.947388 1814.014771,807.435242 1819.966431,797.751526 
	C1824.692261,790.062744 1823.054321,786.408630 1814.413696,785.139221 
	C1794.642456,782.234558 1774.882812,779.250122 1755.106934,776.377930 
	C1752.281372,775.967529 1749.754150,774.872070 1750.605225,771.882874 
	C1751.015259,770.442017 1753.910645,769.484924 1755.852661,768.788757 
	C1756.994019,768.379700 1758.483398,768.841064 1759.798340,769.033142 
	C1770.013062,770.525513 1780.224243,772.041687 1790.434814,773.562195 
	C1799.577637,774.923645 1808.718262,776.299988 1818.209473,777.722168 
	C1817.949219,776.092834 1817.852051,775.113403 1817.631836,774.162537 
	C1815.009399,762.841431 1812.302002,751.539124 1809.822632,740.186951 
	C1809.534546,738.867859 1810.154175,736.287781 1810.928345,736.031677 
	C1812.328491,735.568542 1814.227539,736.235840 1815.790039,736.791809 
	C1816.638550,737.093750 1817.262573,738.103577 1817.920166,738.853516 
	C1829.885498,752.500793 1841.744751,766.243530 1853.897583,779.721558 
	C1855.797729,781.828857 1858.874023,783.553223 1861.662109,784.067383 
	C1875.086182,786.542542 1888.606079,788.493652 1902.072876,790.744629 
	C1905.438721,791.307312 1910.726074,790.687561 1909.735840,796.085754 
	C1908.841675,800.959656 1904.197021,798.971741 1900.921997,798.460632 
	C1889.347778,796.653870 1877.792847,794.723694 1865.682007,792.750977 
	C1870.858765,800.858154 1870.648438,801.427795 1863.049927,806.633484 
	C1859.988525,808.730957 1857.232788,811.274292 1853.460571,814.324158 
	C1855.494751,814.742798 1856.237671,814.899841 1856.982544,815.048218 
	C1875.572876,818.752014 1894.189087,822.335754 1912.715820,826.333984 
	C1914.665405,826.754639 1917.617310,829.778503 1917.454346,831.313110 
	C1917.048218,835.135376 1913.473511,834.464478 1910.671021,833.901611 
	C1894.046875,830.563293 1877.469604,826.979187 1860.807617,823.844910 
	C1845.990845,821.057678 1845.745239,821.164795 1838.947388,834.723389 
	C1836.058350,840.485779 1834.236816,846.783447 1831.804199,853.168396 
	C1850.369507,856.285095 1867.455444,859.024353 1884.487915,862.063538 
	C1893.983398,863.757812 1903.428101,865.793213 1912.797852,868.076965 
	C1914.334595,868.451599 1915.363770,870.908875 1916.627563,872.403625 
	C1914.805054,873.453857 1913.020630,874.582581 1911.133179,875.499084 
	C1910.661133,875.728271 1909.859863,875.260620 1909.205566,875.136047 
	C1894.166016,872.272339 1879.145386,869.302673 1864.078979,866.587830 
	C1853.519897,864.685181 1842.898071,863.131104 1831.949341,861.364014 
	C1831.949341,863.220154 1831.873413,864.367920 1831.961304,865.503052 
	C1832.768188,875.928101 1835.817993,885.661072 1840.701904,894.906372 
	C1842.161499,897.669800 1842.837402,900.320496 1846.816162,900.906494 
	C1858.999634,902.700684 1871.098999,905.060120 1883.247803,907.099487 
	C1891.458008,908.477783 1899.732788,909.505920 1907.891602,911.127930 
	C1909.477295,911.443115 1910.661865,913.776611 1912.031372,915.179077 
	C1910.457153,916.364197 1908.978149,917.726013 1907.263428,918.650391 
	C1906.544434,919.037903 1905.318970,918.539429 1904.335327,918.374390 
	C1882.825317,914.766479 1861.320557,911.125244 1839.801147,907.573792 
	C1837.897461,907.259583 1835.753418,907.044067 1833.968262,907.590515 
	C1822.397827,911.132446 1813.754517,922.310486 1812.837280,934.765564 
	C1814.067383,935.062744 1815.325806,935.485840 1816.617798,935.661255 
	C1839.055054,938.707825 1861.506104,941.654419 1883.923340,944.840393 
	C1886.545410,945.213013 1888.984985,946.869812 1891.915771,948.102356 
	C1923.119263,918.015381 1954.995361,887.279968 1987.155518,856.270569 
	C1935.911377,797.384460 1882.483765,740.733643 1827.553711,686.785828 
	C1819.260132,694.624084 1811.513062,701.945679 1803.275635,709.774170 
z"/>
<path fill="#FCA200" opacity="1.000000" stroke="none" 
	d="
M2001.000000,848.531372 
	C1972.664185,817.623657 1944.754761,785.847961 1915.861694,754.993408 
	C1891.385498,728.855591 1865.775269,703.779419 1840.653320,678.246826 
	C1839.018433,676.585327 1837.293457,675.009033 1835.564453,673.443909 
	C1828.002563,666.599182 1824.046509,666.597656 1816.944458,673.985962 
	C1763.716187,729.360229 1710.474365,784.721985 1657.428101,840.270264 
	C1650.666992,847.350281 1644.871216,855.378479 1638.890991,863.169128 
	C1634.531494,868.848389 1635.099487,875.117859 1640.524170,879.596863 
	C1698.190552,927.210632 1755.922363,974.745300 1813.668823,1022.262085 
	C1816.361206,1024.477539 1819.327271,1026.369507 1822.225586,1028.323730 
	C1828.239502,1032.378906 1831.135132,1032.000122 1836.181396,1026.938599 
	C1868.765381,994.255249 1901.194092,961.414185 1934.044312,929.000366 
	C1955.863281,907.471191 1978.297729,886.566101 2000.728394,865.190857 
	C2001.000000,876.687561 2001.000000,888.375122 2001.000000,900.531250 
	C1999.652710,901.510559 1997.991455,901.678223 1997.003906,902.581970 
	C1969.848999,927.433838 1942.493530,952.075928 1915.744873,977.359436 
	C1891.664062,1000.121155 1868.171265,1023.509094 1844.620728,1046.824463 
	C1838.504883,1052.879150 1833.142822,1059.695312 1827.879395,1065.657715 
	C1753.963989,998.717957 1676.115601,936.825806 1601.210327,870.724731 
	C1603.224731,868.479431 1605.464844,865.887268 1607.804688,863.388306 
	C1670.988525,795.905762 1734.109497,728.363770 1797.464966,661.042603 
	C1805.646851,652.348389 1815.051392,644.804688 1824.318726,636.335876 
	C1830.471191,641.324158 1836.423706,645.576538 1841.706909,650.541321 
	C1857.483765,665.367920 1873.238770,680.232605 1888.567261,695.518555 
	C1925.252563,732.101990 1961.687988,768.935852 1998.232422,805.660522 
	C1998.932495,806.363953 1999.733765,806.966675 2000.743896,807.308228 
	C2001.000000,820.687561 2001.000000,834.375122 2001.000000,848.531372 
z"/>
<path fill="#FCA200" opacity="1.000000" stroke="none" 
	d="
M1807.853394,1387.998291 
	C1807.839233,1396.781860 1807.839233,1405.066772 1807.839233,1413.350342 
	C1807.125854,1412.811035 1805.824829,1411.923340 1804.630493,1410.909790 
	C1791.294556,1399.590210 1777.915771,1388.319458 1764.739136,1376.817017 
	C1763.344360,1375.599487 1762.293701,1372.870605 1762.547119,1371.046143 
	C1768.893921,1325.354370 1775.250244,1279.662231 1781.997070,1234.028198 
	C1789.255371,1184.936035 1796.903687,1135.901733 1804.407227,1086.845947 
	C1805.303955,1080.983765 1806.359009,1075.145752 1807.435059,1068.734375 
	C1811.228271,1071.640259 1813.689209,1074.202881 1813.593018,1079.143311 
	C1811.590698,1181.926880 1809.744507,1284.713623 1807.853394,1387.998291 
z"/>
<path fill="#FCA200" opacity="1.000000" stroke="none" 
	d="
M1843.727783,1171.988892 
	C1848.576538,1224.538818 1853.313721,1276.637207 1858.202271,1328.721313 
	C1859.244873,1339.828857 1860.934814,1350.874756 1862.073486,1361.974976 
	C1862.244507,1363.642944 1861.520752,1365.933716 1860.370239,1367.123657 
	C1848.924438,1378.962524 1837.302856,1390.631348 1825.724487,1402.341919 
	C1825.298584,1402.772827 1824.808594,1403.140137 1823.404053,1404.351440 
	C1823.404053,1399.086060 1823.335815,1394.785889 1823.414062,1390.488525 
	C1825.223267,1291.176514 1827.064819,1191.864990 1828.822876,1092.552124 
	C1828.914551,1087.365967 1828.666504,1082.378174 1835.774780,1081.553955 
	C1838.402588,1111.501709 1841.036499,1141.516968 1843.727783,1171.988892 
z"/>
<path fill="#FCFC0D" opacity="1.000000" stroke="none" 
	d="
M1803.520874,709.520752 
	C1811.513062,701.945679 1819.260132,694.624084 1827.553711,686.785828 
	C1882.483765,740.733643 1935.911377,797.384460 1987.155518,856.270569 
	C1954.995361,887.279968 1923.119263,918.015381 1891.915771,948.102356 
	C1888.984985,946.869812 1886.545410,945.213013 1883.923340,944.840393 
	C1861.506104,941.654419 1839.055054,938.707825 1816.617798,935.661255 
	C1815.325806,935.485840 1814.067383,935.062744 1812.837280,934.765564 
	C1813.754517,922.310486 1822.397827,911.132446 1833.968262,907.590515 
	C1835.753418,907.044067 1837.897461,907.259583 1839.801147,907.573792 
	C1861.320557,911.125244 1882.825317,914.766479 1904.335327,918.374390 
	C1905.318970,918.539429 1906.544434,919.037903 1907.263428,918.650391 
	C1908.978149,917.726013 1910.457153,916.364197 1912.031372,915.179077 
	C1910.661865,913.776611 1909.477295,911.443115 1907.891602,911.127930 
	C1899.732788,909.505920 1891.458008,908.477783 1883.247803,907.099487 
	C1871.098999,905.060120 1858.999634,902.700684 1846.816162,900.906494 
	C1842.837402,900.320496 1842.161499,897.669800 1840.701904,894.906372 
	C1835.817993,885.661072 1832.768188,875.928101 1831.961304,865.503052 
	C1831.873413,864.367920 1831.949341,863.220154 1831.949341,861.364014 
	C1842.898071,863.131104 1853.519897,864.685181 1864.078979,866.587830 
	C1879.145386,869.302673 1894.166016,872.272339 1909.205566,875.136047 
	C1909.859863,875.260620 1910.661133,875.728271 1911.133179,875.499084 
	C1913.020630,874.582581 1914.805054,873.453857 1916.627563,872.403625 
	C1915.363770,870.908875 1914.334595,868.451599 1912.797852,868.076965 
	C1903.428101,865.793213 1893.983398,863.757812 1884.487915,862.063538 
	C1867.455444,859.024353 1850.369507,856.285095 1831.804199,853.168396 
	C1834.236816,846.783447 1836.058350,840.485779 1838.947388,834.723389 
	C1845.745239,821.164795 1845.990845,821.057678 1860.807617,823.844910 
	C1877.469604,826.979187 1894.046875,830.563293 1910.671021,833.901611 
	C1913.473511,834.464478 1917.048218,835.135376 1917.454346,831.313110 
	C1917.617310,829.778503 1914.665405,826.754639 1912.715820,826.333984 
	C1894.189087,822.335754 1875.572876,818.752014 1856.982544,815.048218 
	C1856.237671,814.899841 1855.494751,814.742798 1853.460571,814.324158 
	C1857.232788,811.274292 1859.988525,808.730957 1863.049927,806.633484 
	C1870.648438,801.427795 1870.858765,800.858154 1865.682007,792.750977 
	C1877.792847,794.723694 1889.347778,796.653870 1900.921997,798.460632 
	C1904.197021,798.971741 1908.841675,800.959656 1909.735840,796.085754 
	C1910.726074,790.687561 1905.438721,791.307312 1902.072876,790.744629 
	C1888.606079,788.493652 1875.086182,786.542542 1861.662109,784.067383 
	C1858.874023,783.553223 1855.797729,781.828857 1853.897583,779.721558 
	C1841.744751,766.243530 1829.885498,752.500793 1817.920166,738.853516 
	C1817.262573,738.103577 1816.638550,737.093750 1815.790039,736.791809 
	C1814.227539,736.235840 1812.328491,735.568542 1810.928345,736.031677 
	C1810.154175,736.287781 1809.534546,738.867859 1809.822632,740.186951 
	C1812.302002,751.539124 1815.009399,762.841431 1817.631836,774.162537 
	C1817.852051,775.113403 1817.949219,776.092834 1818.209473,777.722168 
	C1808.718262,776.299988 1799.577637,774.923645 1790.434814,773.562195 
	C1780.224243,772.041687 1770.013062,770.525513 1759.798340,769.033142 
	C1758.483398,768.841064 1756.994019,768.379700 1755.852661,768.788757 
	C1753.910645,769.484924 1751.015259,770.442017 1750.605225,771.882874 
	C1749.754150,774.872070 1752.281372,775.967529 1755.106934,776.377930 
	C1774.882812,779.250122 1794.642456,782.234558 1814.413696,785.139221 
	C1823.054321,786.408630 1824.692261,790.062744 1819.966431,797.751526 
	C1814.014771,807.435242 1812.711548,807.947388 1801.607056,806.328918 
	C1782.503052,803.544434 1763.378540,800.901367 1744.262451,798.200378 
	C1743.932495,798.153748 1743.600708,798.121338 1743.269165,798.087830 
	C1740.489624,797.806763 1737.581299,797.679871 1737.064575,801.303528 
	C1736.539429,804.986389 1739.378906,805.656494 1742.164307,805.972656 
	C1748.946045,806.742432 1755.768433,807.217957 1762.516357,808.208801 
	C1776.311401,810.234497 1790.068237,812.521118 1805.043213,814.890442 
	C1797.744751,821.591980 1791.287109,827.538330 1784.809570,833.462891 
	C1780.951782,836.991394 1777.564453,842.198792 1773.049072,843.520508 
	C1768.404663,844.880005 1762.649658,842.409546 1757.374390,841.658569 
	C1750.122192,840.626160 1742.873413,839.561951 1735.604370,838.661926 
	C1732.780762,838.312317 1729.377930,838.001343 1729.139771,842.054138 
	C1728.936035,845.520569 1731.807617,845.994019 1734.665894,846.387329 
	C1746.378052,847.999451 1758.087891,849.656616 1769.742920,851.626770 
	C1771.635376,851.946716 1773.600586,853.630066 1774.928467,855.195374 
	C1781.922241,863.440125 1788.646606,871.913147 1795.630249,880.166687 
	C1798.081177,883.063232 1801.003296,885.561096 1804.913696,889.432373 
	C1798.614502,889.725708 1793.549805,890.739746 1788.728516,890.051147 
	C1767.972168,887.086365 1747.287598,883.619751 1726.575317,880.345764 
	C1725.590454,880.190063 1724.409302,879.740784 1723.635620,880.103149 
	C1722.013672,880.862488 1720.602539,882.071899 1719.104858,883.096497 
	C1720.279053,884.652161 1721.208008,886.540344 1722.711426,887.649719 
	C1723.762207,888.425110 1725.604370,888.100830 1727.084106,888.326111 
	C1744.332642,890.951355 1761.579346,893.587463 1778.807617,896.217834 
	C1775.636963,901.372437 1771.836914,905.721313 1770.166870,910.774109 
	C1768.458984,915.941711 1768.839722,921.799683 1768.261841,927.816345 
	C1759.119385,926.423218 1749.350220,924.919983 1739.574951,923.457336 
	C1737.605835,923.162720 1735.503052,922.541992 1733.667480,922.964539 
	C1732.240967,923.292847 1730.033569,925.131897 1730.138428,926.082825 
	C1730.303589,927.581055 1731.902466,929.802002 1733.274292,930.130554 
	C1738.598633,931.406189 1744.071777,932.062561 1749.492188,932.932922 
	C1750.807495,933.144226 1752.127930,933.367981 1753.454712,933.458252 
	C1765.252563,934.261230 1774.281494,937.688477 1780.662109,949.654419 
	C1787.642456,962.744812 1800.422607,971.511963 1812.815674,979.804199 
	C1815.536865,981.625000 1819.136353,984.186462 1821.666260,980.913391 
	C1823.069458,979.098022 1822.670166,974.833130 1821.575562,972.332214 
	C1817.521606,963.070251 1813.153564,953.985718 1812.651978,943.280640 
	C1837.326904,946.639526 1861.768066,949.966553 1886.537231,953.338196 
	C1866.852661,973.398499 1847.407959,993.214294 1827.434326,1013.569214 
	C1767.462402,967.995667 1711.388794,917.803528 1652.839844,869.622620 
	C1658.791992,862.580322 1664.230591,855.446533 1670.376831,848.985962 
	C1714.596069,802.505493 1758.958618,756.161438 1803.520874,709.520752 
M1818.924683,994.414001 
	C1821.024414,998.672607 1824.333496,1000.132690 1828.741943,998.302185 
	C1832.626587,996.689087 1834.343750,992.382812 1832.992676,988.344360 
	C1831.717163,984.531677 1827.669434,982.351257 1823.918945,983.456665 
	C1819.610107,984.726562 1817.768066,988.347412 1818.924683,994.414001 
M1831.016724,719.811768 
	C1835.131836,715.734009 1835.858032,711.983643 1832.944946,708.565491 
	C1830.183960,705.326111 1826.686401,704.894165 1823.175537,707.128113 
	C1819.717285,709.328674 1818.544312,712.644043 1820.032227,716.578979 
	C1821.551270,720.596313 1825.095093,721.775879 1831.016724,719.811768 
z"/>
<path fill="#000000" opacity="1.000000" stroke="none" 
	d="
M1818.823486,994.042847 
	C1817.768066,988.347412 1819.610107,984.726562 1823.918945,983.456665 
	C1827.669434,982.351257 1831.717163,984.531677 1832.992676,988.344360 
	C1834.343750,992.382812 1832.626587,996.689087 1828.741943,998.302185 
	C1824.333496,1000.132690 1821.024414,998.672607 1818.823486,994.042847 
z"/>
<path fill="#000000" opacity="1.000000" stroke="none" 
	d="
M1830.669678,719.994385 
	C1825.095093,721.775879 1821.551270,720.596313 1820.032227,716.578979 
	C1818.544312,712.644043 1819.717285,709.328674 1823.175537,707.128113 
	C1826.686401,704.894165 1830.183960,705.326111 1832.944946,708.565491 
	C1835.858032,711.983643 1835.131836,715.734009 1830.669678,719.994385 
z"/>
</svg>