<svg version="1.1" id="Layer_1" xmlns="http://www.w3.org/2000/svg" xmlns:xlink="http://www.w3.org/1999/xlink" x="0px" y="0px"
	 width="100%" viewBox="0 0 2000 1800" enable-background="new 0 0 2000 1800" xml:space="preserve">
<path fill="#000000" opacity="1.000000" stroke="none" 
	d="
M1481.000000,1801.000000 
	C1475.973022,1801.000000 1470.946045,1801.000000 1465.460938,1800.548340 
	C1467.476318,1775.075195 1468.979248,1749.911377 1472.623169,1725.061523 
	C1480.494873,1671.380005 1488.786011,1617.740479 1498.164917,1564.304688 
	C1508.884888,1503.229126 1521.635498,1442.546875 1536.419189,1382.287598 
	C1558.580444,1291.957275 1584.596069,1202.701416 1610.685791,1113.471313 
	C1636.907837,1023.787903 1664.079468,934.382446 1690.489624,844.753540 
	C1715.429932,760.113403 1734.799072,674.056824 1755.032959,587.888184 
	C1756.323853,582.493469 1757.459229,577.397278 1758.594604,572.301147 
	C1758.134521,572.195923 1757.674561,572.090698 1757.214478,571.985474 
	C1755.846069,577.334778 1754.477661,582.684143 1752.979004,588.391357 
	C1750.905884,595.614685 1748.869873,602.455444 1747.034180,609.349548 
	C1723.542114,697.573181 1691.793823,782.518372 1647.902222,862.809937 
	C1616.210205,920.784241 1580.666260,976.372559 1544.726318,1031.709229 
	C1454.181763,1171.119995 1376.917847,1317.475342 1313.640625,1471.195190 
	C1269.372314,1578.736694 1231.600830,1688.488159 1202.000000,1801.000000 
	C1196.973022,1801.000000 1191.946045,1801.000000 1186.521240,1800.617676 
	C1197.999634,1759.373901 1209.119995,1718.274048 1221.904907,1677.698853 
	C1250.920288,1585.614746 1285.299927,1495.522461 1324.204224,1407.140381 
	C1373.502319,1295.145996 1429.747192,1186.809570 1494.413940,1082.912964 
	C1527.669678,1029.482788 1561.824219,976.611877 1595.073975,923.178101 
	C1628.893799,868.828491 1658.610962,812.262695 1683.213379,753.134155 
	C1704.973267,700.837646 1720.750488,646.532776 1735.757935,592.005005 
	C1735.972534,591.225403 1735.784668,590.335144 1735.784668,588.258667 
	C1734.631958,590.722473 1733.959229,592.027954 1733.398193,593.379700 
	C1725.939819,611.354553 1718.759277,629.450073 1710.994873,647.291565 
	C1695.450439,683.010559 1679.519287,718.570312 1658.779419,751.684631 
	C1612.476074,825.615051 1557.768188,893.145691 1500.093628,958.317200 
	C1471.061646,991.123047 1441.007690,1023.031799 1411.142578,1055.091553 
	C1356.449585,1113.803467 1306.758301,1176.644531 1258.005737,1240.249268 
	C1224.165283,1284.398926 1191.406372,1329.387329 1157.111450,1373.176514 
	C1120.142456,1420.380127 1081.491943,1466.264893 1044.393066,1513.369263 
	C990.875305,1581.320557 939.759949,1651.040649 897.981018,1727.012695 
	C884.782837,1751.012695 873.927490,1776.301147 862.000000,1801.000000 
	C856.639771,1801.000000 851.279480,1801.000000 845.493042,1800.638184 
	C862.162292,1760.552368 881.567444,1722.026489 904.161926,1685.110962 
	C949.696106,1610.715820 1001.684448,1540.930298 1056.446167,1473.214478 
	C1111.003296,1405.751587 1166.107544,1338.758179 1217.528931,1268.810669 
	C1278.530029,1185.832031 1342.427979,1105.159424 1413.148682,1030.132080 
	C1468.820557,971.070007 1523.304565,911.006897 1572.882202,846.631348 
	C1603.771484,806.522156 1634.010010,765.962158 1658.425049,721.502136 
	C1682.275513,678.070068 1701.169678,632.317993 1719.555298,586.373657 
	C1719.947754,585.393005 1719.946289,584.254822 1720.128418,583.190063 
	C1718.495239,584.209717 1717.708130,585.573181 1716.929688,586.941589 
	C1703.786987,610.046082 1691.851929,633.945435 1677.266846,656.100220 
	C1640.484131,711.972961 1598.782593,764.227600 1553.115112,813.020569 
	C1515.218018,853.511536 1475.217529,892.035278 1436.108032,931.389893 
	C1358.971191,1009.010254 1276.331299,1080.546631 1192.315674,1150.482300 
	C1130.107666,1202.265137 1066.586792,1252.468018 1004.187500,1304.024414 
	C933.972839,1362.037964 870.912842,1427.310913 812.445435,1497.032104 
	C757.522461,1562.526611 707.464722,1631.775146 656.624817,1700.411377 
	C632.655151,1732.771606 609.598633,1765.742065 590.000000,1801.000000 
	C584.639771,1801.000000 579.279480,1801.000000 573.291321,1800.652588 
	C582.735229,1783.451294 591.959351,1766.014526 603.060791,1749.868530 
	C624.191284,1719.136230 646.036499,1688.876709 668.223633,1658.893433 
	C720.242615,1588.596313 772.328491,1518.372314 830.272766,1452.680298 
	C888.077942,1387.146240 950.995728,1327.036987 1018.388428,1271.551514 
	C1097.091309,1206.754150 1178.230103,1144.901611 1254.543213,1077.221558 
	C1301.653198,1035.440918 1348.363892,993.194458 1394.596069,950.445801 
	C1418.564209,928.283508 1440.841431,904.304504 1464.340088,881.620117 
	C1512.097412,835.517700 1558.479980,788.170654 1599.027344,735.453674 
	C1619.330200,709.057312 1640.514526,683.226685 1659.152954,655.686951 
	C1692.650391,606.192383 1717.574097,551.906616 1743.221558,498.105133 
	C1743.592773,497.326569 1743.650757,496.398651 1743.854858,495.540436 
	C1742.515137,496.559692 1741.732666,497.808197 1740.926392,499.041107 
	C1715.320312,538.196411 1691.053467,578.314087 1663.780273,616.271606 
	C1625.746338,669.205139 1581.690186,717.394348 1538.825439,766.424194 
	C1514.385132,794.379456 1488.578979,821.168091 1462.833252,847.948975 
	C1410.524292,902.361084 1358.829102,957.408936 1301.707886,1006.960571 
	C1260.750366,1042.490479 1217.946167,1075.633911 1172.245605,1104.789429 
	C1119.471680,1138.457642 1065.741943,1170.568726 1013.895874,1205.765137 
	C961.968628,1241.016479 908.146179,1273.464722 855.901001,1308.262573 
	C800.744019,1344.999756 746.070862,1382.497437 691.939575,1420.729370 
	C651.319519,1449.418335 614.919189,1483.418213 578.704346,1517.341553 
	C522.526733,1569.964600 467.373993,1623.682983 411.879974,1677.034058 
	C374.609375,1712.865601 341.858826,1752.436035 314.267883,1796.210205 
	C313.332764,1797.693848 312.748047,1799.398438 312.000000,1801.000000 
	C306.306458,1801.000000 300.612885,1801.000000 294.098785,1800.763550 
	C293.533234,1799.921021 293.702423,1799.259155 294.055481,1798.716919 
	C321.717468,1756.231201 351.045258,1715.080078 387.656189,1679.595947 
	C433.719025,1634.950806 478.941681,1589.416870 525.720276,1545.538818 
	C567.261963,1506.572876 609.161743,1467.785156 653.268677,1431.819092 
	C692.016479,1400.222656 733.261658,1371.484375 774.802612,1343.564941 
	C838.560852,1300.713501 903.592346,1259.759766 967.944336,1217.787354 
	C1022.399414,1182.270020 1075.672119,1144.940063 1131.668213,1111.790283 
	C1204.063843,1068.931885 1270.283569,1017.796814 1330.748291,959.472656 
	C1431.787720,862.010132 1528.092041,760.091980 1617.020752,651.317993 
	C1643.616943,618.786743 1668.504028,585.128662 1690.828613,549.227539 
	C1690.854614,548.720154 1690.766846,548.463074 1690.679077,548.205933 
	C1690.380493,548.397644 1690.081909,548.589417 1689.479248,548.925110 
	C1686.677124,552.186768 1684.118530,555.257935 1681.689941,558.428650 
	C1607.131104,655.766663 1524.069824,745.338440 1434.593750,829.057068 
	C1400.767456,860.706787 1366.920532,892.334961 1333.206055,924.103577 
	C1282.431519,971.947632 1229.308716,1017.010681 1169.609863,1053.312866 
	C1123.207520,1081.529419 1075.654785,1107.930176 1027.921387,1133.864624 
	C945.893311,1178.431763 863.163208,1221.704834 781.024048,1266.069580 
	C665.016663,1328.727051 552.901123,1397.729248 445.927551,1474.878906 
	C323.968628,1562.836060 209.924240,1660.247559 101.833176,1764.700195 
	C89.265396,1776.844849 76.613045,1788.902100 63.999985,1801.000000 
	C57.306469,1801.000000 50.612942,1801.000000 43.274139,1800.672363 
	C43.947426,1798.864868 45.168331,1797.282227 46.599010,1795.919922 
	C71.458939,1772.249756 96.255066,1748.511597 121.242279,1724.976440 
	C183.360443,1666.468018 247.360657,1610.136108 313.736023,1556.452881 
	C407.776825,1480.394165 506.533356,1411.052124 609.281921,1347.393555 
	C690.549561,1297.043457 774.503723,1251.333008 858.577515,1205.899780 
	C933.847351,1165.224243 1009.373352,1125.017700 1085.014160,1085.035156 
	C1168.602173,1040.851807 1244.698486,986.335449 1313.360596,921.388977 
	C1333.698120,902.152100 1353.703735,882.553894 1374.360718,863.667480 
	C1422.949341,819.243774 1471.171997,774.455444 1516.287476,726.450378 
	C1537.739136,703.624695 1559.683716,681.219849 1580.280762,657.642029 
	C1625.664551,605.690430 1668.322632,551.489868 1710.376343,496.821533 
	C1721.027588,482.975159 1731.583374,469.055206 1742.419067,455.010864 
	C1742.637451,454.582123 1742.619873,454.311615 1742.602295,454.041138 
	C1742.251953,454.204834 1741.901611,454.368530 1741.250488,454.677307 
	C1728.636597,467.004028 1716.112671,478.981720 1704.077759,491.432251 
	C1694.587891,501.250000 1685.901489,511.840240 1676.511719,521.759399 
	C1627.600464,573.429626 1578.869019,625.274780 1529.517334,676.522156 
	C1473.688110,734.496033 1417.260132,791.893250 1361.107056,849.555237 
	C1326.863770,884.718689 1291.184082,918.490356 1250.249390,945.628845 
	C1220.342896,965.456116 1188.579102,982.600342 1157.004272,999.764954 
	C1112.424561,1023.999390 1064.464966,1040.523682 1017.004150,1057.906250 
	C972.965637,1074.035400 928.340027,1088.561768 885.297668,1107.335327 
	C784.894836,1151.127441 685.417236,1196.952637 588.307068,1247.637451 
	C478.811188,1304.786865 369.994080,1363.237183 260.923584,1421.200439 
	C206.307892,1450.224854 153.626434,1482.436523 102.982132,1517.948242 
	C69.233711,1541.612549 38.143482,1568.586304 6.953807,1595.432617 
	C5.225776,1596.919800 2.996130,1597.824219 0.999985,1599.000000 
	C1.000000,1066.373047 1.000000,533.746033 1.000000,1.059530 
	C667.577332,1.059530 1334.154663,1.059530 2000.865967,1.059530 
	C2000.865967,601.000000 2000.865967,1201.000000 2000.865967,1801.000000 
	C1917.574585,1801.000000 1834.247070,1801.000000 1750.393799,1800.587158 
	C1746.288574,1766.423828 1743.198120,1732.612183 1738.984619,1698.940918 
	C1735.164795,1668.416382 1731.302368,1637.811890 1725.356812,1607.657104 
	C1714.874634,1554.496460 1702.961670,1501.614136 1691.333618,1448.684326 
	C1679.156372,1393.255615 1667.311768,1337.816650 1664.662964,1280.859863 
	C1663.251221,1250.504639 1663.367676,1220.141968 1667.561157,1190.109985 
	C1672.110962,1157.526123 1677.756104,1125.031128 1684.522583,1092.833252 
	C1704.713501,996.753967 1720.650269,899.970215 1735.028809,802.882202 
	C1743.531372,745.470886 1753.340332,688.252991 1762.737061,630.654663 
	C1767.539795,609.867798 1772.167358,589.374329 1776.894775,568.509033 
	C1784.650757,543.920898 1792.293091,519.700195 1799.968628,495.489990 
	C1803.779419,483.470184 1807.870605,471.533447 1811.389038,459.429565 
	C1812.817993,454.513428 1811.053345,450.092712 1806.346436,446.634033 
	C1805.684937,448.390076 1805.129761,449.582306 1804.781128,450.832153 
	C1800.008545,467.939209 1794.853149,484.953156 1790.617065,502.192749 
	C1785.269897,523.954163 1780.677856,545.901184 1775.522461,568.063354 
	C1773.599487,575.583435 1771.874146,582.799194 1770.237549,590.034973 
	C1767.148560,603.691650 1764.110718,617.359863 1760.951416,631.397217 
	C1759.243164,638.222534 1757.533081,644.650452 1756.043335,651.129089 
	C1739.124268,724.704895 1720.737793,797.899780 1699.275024,870.298279 
	C1669.645874,970.243042 1639.797729,1070.123535 1610.441406,1170.148315 
	C1579.534058,1275.458740 1549.976196,1381.144043 1528.550049,1488.884521 
	C1519.563965,1534.070312 1510.858765,1579.335571 1503.328735,1624.780518 
	C1496.093994,1668.442017 1490.286499,1712.348145 1484.395996,1756.219849 
	C1482.407227,1771.031616 1482.084229,1786.066895 1481.000000,1801.000000 
M1743.555542,452.209595 
	C1743.585815,452.398315 1743.616211,452.587067 1743.646484,452.775787 
	C1743.747314,452.497253 1743.848145,452.218719 1744.393799,452.105896 
	C1744.452148,451.863098 1744.510498,451.620300 1744.568726,451.377441 
	C1744.386719,451.596161 1744.204712,451.814911 1743.555542,452.209595 
M1736.138062,587.387878 
	C1736.373535,587.285645 1736.609009,587.183472 1736.844604,587.081299 
	C1736.618042,586.999390 1736.391479,586.917419 1736.138062,587.387878 
z"/>
<path fill="#058698" opacity="1.000000" stroke="none" 
	d="
M862.468628,1801.000000 
	C873.927490,1776.301147 884.782837,1751.012695 897.981018,1727.012695 
	C939.759949,1651.040649 990.875305,1581.320557 1044.393066,1513.369263 
	C1081.491943,1466.264893 1120.142456,1420.380127 1157.111450,1373.176514 
	C1191.406372,1329.387329 1224.165283,1284.398926 1258.005737,1240.249268 
	C1306.758301,1176.644531 1356.449585,1113.803467 1411.142578,1055.091553 
	C1441.007690,1023.031799 1471.061646,991.123047 1500.093628,958.317200 
	C1557.768188,893.145691 1612.476074,825.615051 1658.779419,751.684631 
	C1679.519287,718.570312 1695.450439,683.010559 1710.994873,647.291565 
	C1718.759277,629.450073 1725.939819,611.354553 1733.398193,593.379700 
	C1733.959229,592.027954 1734.631958,590.722473 1735.784668,588.258667 
	C1735.784668,590.335144 1735.972534,591.225403 1735.757935,592.005005 
	C1720.750488,646.532776 1704.973267,700.837646 1683.213379,753.134155 
	C1658.610962,812.262695 1628.893799,868.828491 1595.073975,923.178101 
	C1561.824219,976.611877 1527.669678,1029.482788 1494.413940,1082.912964 
	C1429.747192,1186.809570 1373.502319,1295.145996 1324.204224,1407.140381 
	C1285.299927,1495.522461 1250.920288,1585.614746 1221.904907,1677.698853 
	C1209.119995,1718.274048 1197.999634,1759.373901 1186.061768,1800.617676 
	C1078.312500,1801.000000 970.624878,1801.000000 862.468628,1801.000000 
z"/>
<path fill="#FEFEFE" opacity="1.000000" stroke="none" 
	d="
M590.468628,1801.000000 
	C609.598633,1765.742065 632.655151,1732.771606 656.624817,1700.411377 
	C707.464722,1631.775146 757.522461,1562.526611 812.445435,1497.032104 
	C870.912842,1427.310913 933.972839,1362.037964 1004.187500,1304.024414 
	C1066.586792,1252.468018 1130.107666,1202.265137 1192.315674,1150.482300 
	C1276.331299,1080.546631 1358.971191,1009.010254 1436.108032,931.389893 
	C1475.217529,892.035278 1515.218018,853.511536 1553.115112,813.020569 
	C1598.782593,764.227600 1640.484131,711.972961 1677.266846,656.100220 
	C1691.851929,633.945435 1703.786987,610.046082 1716.929688,586.941589 
	C1717.708130,585.573181 1718.495239,584.209717 1720.128418,583.190063 
	C1719.946289,584.254822 1719.947754,585.393005 1719.555298,586.373657 
	C1701.169678,632.317993 1682.275513,678.070068 1658.425049,721.502136 
	C1634.010010,765.962158 1603.771484,806.522156 1572.882202,846.631348 
	C1523.304565,911.006897 1468.820557,971.070007 1413.148682,1030.132080 
	C1342.427979,1105.159424 1278.530029,1185.832031 1217.528931,1268.810669 
	C1166.107544,1338.758179 1111.003296,1405.751587 1056.446167,1473.214478 
	C1001.684448,1540.930298 949.696106,1610.715820 904.161926,1685.110962 
	C881.567444,1722.026489 862.162292,1760.552368 845.033447,1800.638184 
	C760.312439,1801.000000 675.624878,1801.000000 590.468628,1801.000000 
z"/>
<path fill="#058698" opacity="1.000000" stroke="none" 
	d="
M1742.183105,455.169098 
	C1731.583374,469.055206 1721.027588,482.975159 1710.376343,496.821533 
	C1668.322632,551.489868 1625.664551,605.690430 1580.280762,657.642029 
	C1559.683716,681.219849 1537.739136,703.624695 1516.287476,726.450378 
	C1471.171997,774.455444 1422.949341,819.243774 1374.360718,863.667480 
	C1353.703735,882.553894 1333.698120,902.152100 1313.360596,921.388977 
	C1244.698486,986.335449 1168.602173,1040.851807 1085.014160,1085.035156 
	C1009.373352,1125.017700 933.847351,1165.224243 858.577515,1205.899780 
	C774.503723,1251.333008 690.549561,1297.043457 609.281921,1347.393555 
	C506.533356,1411.052124 407.776825,1480.394165 313.736023,1556.452881 
	C247.360657,1610.136108 183.360443,1666.468018 121.242279,1724.976440 
	C96.255066,1748.511597 71.458939,1772.249756 46.599010,1795.919922 
	C45.168331,1797.282227 43.947426,1798.864868 42.814438,1800.672363 
	C29.025141,1801.000000 15.050280,1801.000000 1.000000,1801.000000 
	C1.000000,1733.979126 1.000000,1666.958130 0.999985,1599.468628 
	C2.996130,1597.824219 5.225776,1596.919800 6.953807,1595.432617 
	C38.143482,1568.586304 69.233711,1541.612549 102.982132,1517.948242 
	C153.626434,1482.436523 206.307892,1450.224854 260.923584,1421.200439 
	C369.994080,1363.237183 478.811188,1304.786865 588.307068,1247.637451 
	C685.417236,1196.952637 784.894836,1151.127441 885.297668,1107.335327 
	C928.340027,1088.561768 972.965637,1074.035400 1017.004150,1057.906250 
	C1064.464966,1040.523682 1112.424561,1023.999390 1157.004272,999.764954 
	C1188.579102,982.600342 1220.342896,965.456116 1250.249390,945.628845 
	C1291.184082,918.490356 1326.863770,884.718689 1361.107056,849.555237 
	C1417.260132,791.893250 1473.688110,734.496033 1529.517334,676.522156 
	C1578.869019,625.274780 1627.600464,573.429626 1676.511719,521.759399 
	C1685.901489,511.840240 1694.587891,501.250000 1704.077759,491.432251 
	C1716.112671,478.981720 1728.636597,467.004028 1741.405029,454.839905 
	C1741.860474,454.857391 1742.183105,455.169128 1742.183105,455.169098 
z"/>
<path fill="#FEFEFE" opacity="1.000000" stroke="none" 
	d="
M1754.877441,588.186707 
	C1734.799072,674.056824 1715.429932,760.113403 1690.489624,844.753540 
	C1664.079468,934.382446 1636.907837,1023.787903 1610.685791,1113.471313 
	C1584.596069,1202.701416 1558.580444,1291.957275 1536.419189,1382.287598 
	C1521.635498,1442.546875 1508.884888,1503.229126 1498.164917,1564.304688 
	C1488.786011,1617.740479 1480.494873,1671.380005 1472.623169,1725.061523 
	C1468.979248,1749.911377 1467.476318,1775.075195 1465.001465,1800.548340 
	C1377.645752,1801.000000 1290.291504,1801.000000 1202.468628,1801.000000 
	C1231.600830,1688.488159 1269.372314,1578.736694 1313.640625,1471.195190 
	C1376.917847,1317.475342 1454.181763,1171.119995 1544.726318,1031.709229 
	C1580.666260,976.372559 1616.210205,920.784241 1647.902222,862.809937 
	C1691.793823,782.518372 1723.542114,697.573181 1747.034180,609.349548 
	C1748.869873,602.455444 1750.905884,595.614685 1753.422852,588.410767 
	C1754.290405,588.110474 1754.583984,588.148560 1754.877441,588.186707 
z"/>
<path fill="#058697" opacity="1.000000" stroke="none" 
	d="
M312.468658,1801.000000 
	C312.748047,1799.398438 313.332764,1797.693848 314.267883,1796.210205 
	C341.858826,1752.436035 374.609375,1712.865601 411.879974,1677.034058 
	C467.373993,1623.682983 522.526733,1569.964600 578.704346,1517.341553 
	C614.919189,1483.418213 651.319519,1449.418335 691.939575,1420.729370 
	C746.070862,1382.497437 800.744019,1344.999756 855.901001,1308.262573 
	C908.146179,1273.464722 961.968628,1241.016479 1013.895874,1205.765137 
	C1065.741943,1170.568726 1119.471680,1138.457642 1172.245605,1104.789429 
	C1217.946167,1075.633911 1260.750366,1042.490479 1301.707886,1006.960571 
	C1358.829102,957.408936 1410.524292,902.361084 1462.833252,847.948975 
	C1488.578979,821.168091 1514.385132,794.379456 1538.825439,766.424194 
	C1581.690186,717.394348 1625.746338,669.205139 1663.780273,616.271606 
	C1691.053467,578.314087 1715.320312,538.196411 1740.926392,499.041107 
	C1741.732666,497.808197 1742.515137,496.559692 1743.854858,495.540436 
	C1743.650757,496.398651 1743.592773,497.326569 1743.221558,498.105133 
	C1717.574097,551.906616 1692.650391,606.192383 1659.152954,655.686951 
	C1640.514526,683.226685 1619.330200,709.057312 1599.027344,735.453674 
	C1558.479980,788.170654 1512.097412,835.517700 1464.340088,881.620117 
	C1440.841431,904.304504 1418.564209,928.283508 1394.596069,950.445801 
	C1348.363892,993.194458 1301.653198,1035.440918 1254.543213,1077.221558 
	C1178.230103,1144.901611 1097.091309,1206.754150 1018.388428,1271.551514 
	C950.995728,1327.036987 888.077942,1387.146240 830.272766,1452.680298 
	C772.328491,1518.372314 720.242615,1588.596313 668.223633,1658.893433 
	C646.036499,1688.876709 624.191284,1719.136230 603.060791,1749.868530 
	C591.959351,1766.014526 582.735229,1783.451294 572.831665,1800.652588 
	C486.312439,1801.000000 399.624878,1801.000000 312.468658,1801.000000 
z"/>
<path fill="#058698" opacity="1.000000" stroke="none" 
	d="
M1762.561768,630.948120 
	C1753.340332,688.252991 1743.531372,745.470886 1735.028809,802.882202 
	C1720.650269,899.970215 1704.713501,996.753967 1684.522583,1092.833252 
	C1677.756104,1125.031128 1672.110962,1157.526123 1667.561157,1190.109985 
	C1663.367676,1220.141968 1663.251221,1250.504639 1664.662964,1280.859863 
	C1667.311768,1337.816650 1679.156372,1393.255615 1691.333618,1448.684326 
	C1702.961670,1501.614136 1714.874634,1554.496460 1725.356812,1607.657104 
	C1731.302368,1637.811890 1735.164795,1668.416382 1738.984619,1698.940918 
	C1743.198120,1732.612183 1746.288574,1766.423828 1749.934082,1800.587158 
	C1660.645752,1801.000000 1571.291504,1801.000000 1481.468628,1801.000000 
	C1482.084229,1786.066895 1482.407227,1771.031616 1484.395996,1756.219849 
	C1490.286499,1712.348145 1496.093994,1668.442017 1503.328735,1624.780518 
	C1510.858765,1579.335571 1519.563965,1534.070312 1528.550049,1488.884521 
	C1549.976196,1381.144043 1579.534058,1275.458740 1610.441406,1170.148315 
	C1639.797729,1070.123535 1669.645874,970.243042 1699.275024,870.298279 
	C1720.737793,797.899780 1739.124268,724.704895 1756.043335,651.129089 
	C1757.533081,644.650452 1759.243164,638.222534 1761.329102,631.383240 
	C1762.058716,630.979675 1762.310181,630.963928 1762.561768,630.948120 
z"/>
<path fill="#FEFEFE" opacity="1.000000" stroke="none" 
	d="
M1690.714600,549.477905 
	C1668.504028,585.128662 1643.616943,618.786743 1617.020752,651.317993 
	C1528.092041,760.091980 1431.787720,862.010132 1330.748291,959.472656 
	C1270.283569,1017.796814 1204.063843,1068.931885 1131.668213,1111.790283 
	C1075.672119,1144.940063 1022.399414,1182.270020 967.944336,1217.787354 
	C903.592346,1259.759766 838.560852,1300.713501 774.802612,1343.564941 
	C733.261658,1371.484375 692.016479,1400.222656 653.268677,1431.819092 
	C609.161743,1467.785156 567.261963,1506.572876 525.720276,1545.538818 
	C478.941681,1589.416870 433.719025,1634.950806 387.656189,1679.595947 
	C351.045258,1715.080078 321.717468,1756.231201 294.055481,1798.716919 
	C293.702423,1799.259155 293.533234,1799.921021 293.639099,1800.763550 
	C217.645767,1801.000000 141.291550,1801.000000 64.468643,1801.000000 
	C76.613045,1788.902100 89.265396,1776.844849 101.833176,1764.700195 
	C209.924240,1660.247559 323.968628,1562.836060 445.927551,1474.878906 
	C552.901123,1397.729248 665.016663,1328.727051 781.024048,1266.069580 
	C863.163208,1221.704834 945.893311,1178.431763 1027.921387,1133.864624 
	C1075.654785,1107.930176 1123.207520,1081.529419 1169.609863,1053.312866 
	C1229.308716,1017.010681 1282.431519,971.947632 1333.206055,924.103577 
	C1366.920532,892.334961 1400.767456,860.706787 1434.593750,829.057068 
	C1524.069824,745.338440 1607.131104,655.766663 1681.689941,558.428650 
	C1684.118530,555.257935 1686.677124,552.186768 1689.699219,549.116516 
	C1690.386963,549.268616 1690.550781,549.373230 1690.714600,549.477905 
z"/>
<path fill="#058091" opacity="1.000000" stroke="none" 
	d="
M1775.760010,567.768066 
	C1780.677856,545.901184 1785.269897,523.954163 1790.617065,502.192749 
	C1794.853149,484.953156 1800.008545,467.939209 1804.781128,450.832153 
	C1805.129761,449.582306 1805.684937,448.390076 1806.346436,446.634033 
	C1811.053345,450.092712 1812.817993,454.513428 1811.389038,459.429565 
	C1807.870605,471.533447 1803.779419,483.470184 1799.968628,495.489990 
	C1792.293091,519.700195 1784.650757,543.920898 1776.678955,568.370972 
	C1776.162231,568.325745 1775.961060,568.046936 1775.760010,567.768066 
z"/>
<path fill="#035F6C" opacity="1.000000" stroke="none" 
	d="
M1775.522461,568.063354 
	C1775.961060,568.046936 1776.162231,568.325745 1776.579102,568.742737 
	C1772.167358,589.374329 1767.539795,609.867798 1762.737061,630.654663 
	C1762.310181,630.963928 1762.058716,630.979675 1761.429443,631.009399 
	C1764.110718,617.359863 1767.148560,603.691650 1770.237549,590.034973 
	C1771.874146,582.799194 1773.599487,575.583435 1775.522461,568.063354 
z"/>
<path fill="#CDCDCD" opacity="1.000000" stroke="none" 
	d="
M1755.032959,587.888184 
	C1754.583984,588.148560 1754.290405,588.110474 1753.552979,588.052917 
	C1754.477661,582.684143 1755.846069,577.334778 1757.214478,571.985474 
	C1757.674561,572.090698 1758.134521,572.195923 1758.594604,572.301147 
	C1757.459229,577.397278 1756.323853,582.493469 1755.032959,587.888184 
z"/>
<path fill="#058698" opacity="1.000000" stroke="none" 
	d="
M1736.151489,587.111694 
	C1736.391479,586.917419 1736.618042,586.999390 1736.844604,587.081299 
	C1736.609009,587.183472 1736.373535,587.285645 1736.151489,587.111694 
z"/>
<path fill="#FEFEFE" opacity="1.000000" stroke="none" 
	d="
M1690.003296,548.972534 
	C1690.081909,548.589417 1690.380493,548.397644 1690.679077,548.205933 
	C1690.766846,548.463074 1690.854614,548.720154 1690.828613,549.227539 
	C1690.550781,549.373230 1690.386963,549.268616 1690.003296,548.972534 
z"/>
<path fill="#058698" opacity="1.000000" stroke="none" 
	d="
M1741.705811,454.694824 
	C1741.901611,454.368530 1742.251953,454.204834 1742.602295,454.041138 
	C1742.619873,454.311615 1742.637451,454.582123 1742.419067,455.010864 
	C1742.183105,455.169128 1741.860474,454.857391 1741.705811,454.694824 
z"/>
<path fill="#058698" opacity="1.000000" stroke="none" 
	d="
M1743.948853,451.940186 
	C1743.848145,452.218719 1743.747314,452.497253 1743.646484,452.775787 
	C1743.616211,452.587067 1743.585815,452.398315 1743.770996,452.098083 
	C1743.986328,451.986542 1743.948853,451.940186 1743.948853,451.940186 
z"/>
<path fill="#058698" opacity="1.000000" stroke="none" 
	d="
M1744.004517,452.010071 
	C1744.204712,451.814911 1744.386719,451.596161 1744.568848,451.377472 
	C1744.510498,451.620300 1744.452148,451.863098 1744.171387,452.023041 
	C1743.948853,451.940186 1743.986328,451.986542 1744.004517,452.010071 
z"/>
</svg>