<svg version="1.1" id="Layer_1" xmlns="http://www.w3.org/2000/svg" xmlns:xlink="http://www.w3.org/1999/xlink" x="0px" y="0px"
	 width="100%" viewBox="0 0 2000 1800" enable-background="new 0 0 2000 1800" xml:space="preserve">
<path fill="#000000" opacity="1.000000" stroke="none" 
	d="
M1.000000,796.000000 
	C1.000000,531.013977 1.000000,266.027924 1.000000,1.020945 
	C667.617615,1.020945 1334.235229,1.020945 2000.926392,1.020945 
	C2000.926392,600.919312 2000.926392,1200.838623 2000.926392,1800.878906 
	C1334.449219,1800.878906 667.898315,1800.878906 1.000000,1800.878906 
	C1.000000,1481.298462 1.000000,1161.596924 1.446850,841.517029 
	C60.575539,834.909973 119.360924,830.290527 178.410324,829.749268 
	C179.190002,829.742126 179.966904,829.430542 180.150848,829.390503 
	C183.811096,808.138245 187.158508,787.271057 191.031250,766.501831 
	C200.299667,716.796204 216.836929,669.638611 241.109238,625.221130 
	C261.490845,587.923462 290.035950,559.217102 328.323608,540.144287 
	C359.163025,524.781860 390.639679,511.174194 423.540741,500.841156 
	C446.758575,493.549255 469.985077,486.922516 494.587708,485.990265 
	C525.218201,484.829590 555.481018,487.459259 585.635071,492.528259 
	C606.516785,496.038483 627.168152,500.467529 646.665405,508.870056 
	C681.768372,523.998169 708.468201,549.365723 731.049072,579.533569 
	C733.008789,582.151733 734.511658,585.111877 735.708191,587.066223 
	C771.638550,569.419373 807.128967,551.995056 842.607483,534.546448 
	C844.543640,533.594238 846.444275,532.538147 848.252075,531.362244 
	C853.560059,527.909668 856.895569,523.210205 857.406372,516.704651 
	C857.693054,513.054382 857.701843,509.281036 858.688782,505.805389 
	C862.113708,493.743744 865.912048,481.788147 869.517090,469.960205 
	C869.526855,469.959503 868.371643,469.928497 867.262268,470.138947 
	C851.795959,473.073059 836.411682,472.418793 821.133667,468.932434 
	C790.969360,462.049133 769.678650,444.946716 761.747314,414.358490 
	C759.040039,403.917358 759.162476,392.624664 758.928101,381.700958 
	C758.767029,374.193329 760.219604,366.651123 761.010864,358.507568 
	C758.705750,359.739166 756.995361,360.687408 755.255371,361.577698 
	C708.742310,385.375641 659.968384,393.747986 608.640259,381.892548 
	C581.126770,375.537659 556.841797,363.111572 538.779297,340.386505 
	C528.288696,327.187988 521.242065,312.353455 516.218079,294.447754 
	C515.182129,296.369324 514.844666,297.360138 514.217041,298.107147 
	C484.549286,333.419220 447.409729,358.900238 406.628967,379.491638 
	C386.433228,389.689056 365.146088,396.754272 342.510651,398.717041 
	C315.265411,401.079529 290.750946,392.064178 267.257050,379.417633 
	C265.113373,378.263702 262.962799,377.122620 260.392517,375.749695 
	C260.038055,379.267517 259.861298,382.213928 259.430450,385.122742 
	C249.845169,449.832977 222.027908,504.967560 173.289444,549.125000 
	C146.865707,573.065125 116.118530,586.418701 80.250717,587.248779 
	C73.625435,587.402100 66.993568,587.270630 60.124149,587.270630 
	C62.283581,595.108887 64.638680,602.714722 66.463837,610.445740 
	C74.277817,643.544128 77.652031,676.819153 69.024910,710.318970 
	C60.881565,741.940308 44.615055,768.422119 18.411945,788.342346 
	C13.288701,792.237122 8.005874,796.190552 1.000000,796.000000 
M688.266113,619.750854 
	C699.442139,611.456177 710.618225,603.161438 721.998352,594.715210 
	C721.406250,593.581177 720.740234,592.060120 719.860657,590.674500 
	C718.257446,588.148804 716.705017,585.559082 714.822388,583.247681 
	C700.772156,565.997192 685.208191,550.320557 666.880798,537.547729 
	C654.520569,528.933594 641.186890,522.375183 626.746704,517.981689 
	C594.863586,508.281219 562.141724,503.710205 528.984619,501.825378 
	C506.970947,500.574036 484.898834,500.460052 463.366577,505.726593 
	C413.107391,518.019348 365.249054,536.625549 320.303345,562.381836 
	C301.731659,573.024414 286.137329,587.256104 273.181427,604.257996 
	C254.892120,628.258972 242.256058,655.337036 230.993652,683.118164 
	C214.324677,724.235535 205.727631,767.380371 199.023880,810.991577 
	C198.105469,816.966431 197.380936,822.971069 196.524216,829.274048 
	C198.568771,829.274048 199.720245,829.309509 200.869049,829.268860 
	C235.334549,828.050537 269.823730,827.278687 304.257751,825.461670 
	C333.701843,823.907959 363.092255,822.258301 392.615204,822.050537 
	C424.734161,821.824585 456.844299,819.530212 488.943298,817.851196 
	C497.138672,817.422485 505.244812,815.681396 511.159210,809.144836 
	C525.670044,793.107544 542.819092,780.114197 559.929077,767.138672 
	C583.443604,749.306213 604.661072,729.226013 621.950256,705.253784 
	C633.041626,689.875061 643.636963,674.137146 654.378479,658.507935 
	C664.033325,644.459900 674.454651,631.097107 688.266113,619.750854 
M858.466675,425.618591 
	C864.239868,426.569641 870.013123,427.520691 876.064026,428.517487 
	C862.134277,412.037689 870.076233,397.362549 880.264099,382.331604 
	C860.353638,389.383057 846.089722,382.485352 835.528992,365.600128 
	C834.078308,371.588623 832.811646,377.070526 831.416626,382.519623 
	C829.032166,391.833588 824.609253,399.670685 815.618713,404.226898 
	C810.925598,406.605225 806.327698,409.171326 801.621216,411.687714 
	C805.637146,412.058411 809.430786,412.349915 813.207825,412.784546 
	C814.845947,412.973022 816.476746,413.363892 818.065125,413.821808 
	C824.478027,415.670898 827.452087,419.418030 827.328857,426.176727 
	C827.195862,433.474030 826.679382,440.764435 826.317871,448.057251 
	C826.312195,448.171234 826.148682,448.277374 826.058838,448.387177 
	C826.207397,448.394226 826.356018,448.401245 826.297729,448.398499 
	C830.833435,443.153839 835.150696,437.881226 839.774719,432.892853 
	C844.513489,427.780640 850.488770,425.251801 858.466675,425.618591 
z"/>
<path fill="#FEFE0D" opacity="1.000000" stroke="none" 
	d="
M1.000000,796.468628 
	C8.005874,796.190552 13.288701,792.237122 18.411945,788.342346 
	C44.615055,768.422119 60.881565,741.940308 69.024910,710.318970 
	C77.652031,676.819153 74.277817,643.544128 66.463837,610.445740 
	C64.638680,602.714722 62.283581,595.108887 60.124149,587.270630 
	C66.993568,587.270630 73.625435,587.402100 80.250717,587.248779 
	C116.118530,586.418701 146.865707,573.065125 173.289444,549.125000 
	C222.027908,504.967560 249.845169,449.832977 259.430450,385.122742 
	C259.861298,382.213928 260.038055,379.267517 260.392517,375.749695 
	C262.962799,377.122620 265.113373,378.263702 267.257050,379.417633 
	C290.750946,392.064178 315.265411,401.079529 342.510651,398.717041 
	C365.146088,396.754272 386.433228,389.689056 406.628967,379.491638 
	C447.409729,358.900238 484.549286,333.419220 514.217041,298.107147 
	C514.844666,297.360138 515.182129,296.369324 516.218079,294.447754 
	C521.242065,312.353455 528.288696,327.187988 538.779297,340.386505 
	C556.841797,363.111572 581.126770,375.537659 608.640259,381.892548 
	C659.968384,393.747986 708.742310,385.375641 755.255371,361.577698 
	C756.995361,360.687408 758.705750,359.739166 761.010864,358.507568 
	C760.219604,366.651123 758.767029,374.193329 758.928101,381.700958 
	C759.162476,392.624664 759.040039,403.917358 761.747314,414.358490 
	C769.678650,444.946716 790.969360,462.049133 821.133667,468.932434 
	C836.411682,472.418793 851.795959,473.073059 867.262268,470.138947 
	C868.371643,469.928497 869.526855,469.959503 869.517090,469.960205 
	C865.912048,481.788147 862.113708,493.743744 858.688782,505.805389 
	C857.701843,509.281036 857.693054,513.054382 857.406372,516.704651 
	C856.895569,523.210205 853.560059,527.909668 848.252075,531.362244 
	C846.444275,532.538147 844.543640,533.594238 842.607483,534.546448 
	C807.128967,551.995056 771.638550,569.419373 735.708191,587.066223 
	C734.511658,585.111877 733.008789,582.151733 731.049072,579.533569 
	C708.468201,549.365723 681.768372,523.998169 646.665405,508.870056 
	C627.168152,500.467529 606.516785,496.038483 585.635071,492.528259 
	C555.481018,487.459259 525.218201,484.829590 494.587708,485.990265 
	C469.985077,486.922516 446.758575,493.549255 423.540741,500.841156 
	C390.639679,511.174194 359.163025,524.781860 328.323608,540.144287 
	C290.035950,559.217102 261.490845,587.923462 241.109238,625.221130 
	C216.836929,669.638611 200.299667,716.796204 191.031250,766.501831 
	C187.158508,787.271057 183.811096,808.138245 180.150848,829.390503 
	C179.966904,829.430542 179.190002,829.742126 178.410324,829.749268 
	C119.360924,830.290527 60.575539,834.909973 1.446850,841.069397 
	C1.000000,826.312439 1.000000,811.624878 1.000000,796.468628 
z"/>
<path fill="#FEFEDF" opacity="1.000000" stroke="none" 
	d="
M687.988708,619.970947 
	C674.454651,631.097107 664.033325,644.459900 654.378479,658.507935 
	C643.636963,674.137146 633.041626,689.875061 621.950256,705.253784 
	C604.661072,729.226013 583.443604,749.306213 559.929077,767.138672 
	C542.819092,780.114197 525.670044,793.107544 511.159210,809.144836 
	C505.244812,815.681396 497.138672,817.422485 488.943298,817.851196 
	C456.844299,819.530212 424.734161,821.824585 392.615204,822.050537 
	C363.092255,822.258301 333.701843,823.907959 304.257751,825.461670 
	C269.823730,827.278687 235.334549,828.050537 200.869049,829.268860 
	C199.720245,829.309509 198.568771,829.274048 196.524216,829.274048 
	C197.380936,822.971069 198.105469,816.966431 199.023880,810.991577 
	C205.727631,767.380371 214.324677,724.235535 230.993652,683.118164 
	C242.256058,655.337036 254.892120,628.258972 273.181427,604.257996 
	C286.137329,587.256104 301.731659,573.024414 320.303345,562.381836 
	C365.249054,536.625549 413.107391,518.019348 463.366577,505.726593 
	C484.898834,500.460052 506.970947,500.574036 528.984619,501.825378 
	C562.141724,503.710205 594.863586,508.281219 626.746704,517.981689 
	C641.186890,522.375183 654.520569,528.933594 666.880798,537.547729 
	C685.208191,550.320557 700.772156,565.997192 714.822388,583.247681 
	C716.705017,585.559082 718.257446,588.148804 719.860657,590.674500 
	C720.740234,592.060120 721.406250,593.581177 721.998352,594.715210 
	C710.618225,603.161438 699.442139,611.456177 687.988708,619.970947 
M607.050903,688.818970 
	C608.750000,690.405151 610.288391,692.226135 612.184753,693.524109 
	C615.273499,695.638245 619.052124,695.786377 621.201843,692.822266 
	C622.771667,690.657593 623.263550,687.062256 622.848022,684.314575 
	C622.523804,682.170471 620.286987,680.116577 618.515320,678.425720 
	C611.737549,671.956909 603.577087,667.954773 594.486877,665.942627 
	C565.974243,659.630920 541.192810,670.295349 517.036499,683.343140 
	C513.449341,685.280701 512.458862,688.993591 514.163086,692.920166 
	C515.708740,696.481262 519.868530,698.126587 523.920471,696.617554 
	C526.865601,695.520630 529.576599,693.810913 532.483459,692.592407 
	C541.733521,688.714539 551.026367,684.938538 561.293152,680.715820 
	C560.994629,684.202209 560.825684,686.152771 560.660889,688.103760 
	C559.714844,699.299438 566.322449,707.353394 577.568848,707.703491 
	C583.489441,707.887695 589.557007,707.195557 595.373840,706.001099 
	C605.061646,704.011902 607.928833,698.911377 606.057922,688.916626 
	C606.198730,688.763062 606.339478,688.609497 607.050903,688.818970 
M409.153748,707.642273 
	C414.411652,702.607666 415.464325,696.087524 415.041718,688.394287 
	C417.903229,690.935974 419.851257,693.002319 422.126282,694.604126 
	C425.138214,696.724976 428.415375,696.842957 431.330231,694.306030 
	C434.374573,691.656494 434.893860,688.344299 432.953918,684.852539 
	C432.080933,683.281311 430.903290,681.756958 429.534119,680.602417 
	C413.874115,667.397766 396.377502,658.523438 375.397766,658.131775 
	C348.921631,657.637451 325.440186,667.718994 302.338074,679.019897 
	C299.376923,680.468384 296.502106,682.293579 293.998627,684.426941 
	C290.858521,687.102783 290.137329,690.701843 292.511261,694.276428 
	C294.728668,697.615295 298.047913,698.302673 301.749664,696.964661 
	C302.830505,696.574036 303.834869,695.944092 304.831238,695.351501 
	C319.359589,686.709900 335.051849,680.838867 351.273743,676.447815 
	C362.248474,673.477234 373.493317,672.842224 385.400696,674.738525 
	C383.926025,677.383362 382.540894,679.425415 381.596436,681.654236 
	C379.662201,686.218872 377.298126,690.745422 376.303345,695.535217 
	C373.993835,706.655029 381.945862,716.194153 392.951752,714.791931 
	C398.373932,714.101196 403.418884,710.449463 409.153748,707.642273 
M599.756531,625.044006 
	C610.803040,622.369995 621.964233,622.270081 632.861450,625.171692 
	C639.661377,626.982361 646.169434,630.061279 652.602783,633.018494 
	C657.222351,635.141968 661.311890,634.939758 663.781982,631.540222 
	C666.356140,627.997437 665.393433,623.430298 661.208313,620.204712 
	C659.510986,618.896484 657.624329,617.783875 655.702637,616.824951 
	C641.406982,609.691284 626.214050,606.589417 610.327209,607.752563 
	C593.333862,608.996704 577.512817,614.598389 562.752441,622.833740 
	C552.039551,628.810791 541.764404,635.594055 531.467773,642.285156 
	C527.313293,644.984924 526.433777,649.635132 528.664795,653.177063 
	C530.845520,656.639160 535.332947,657.461548 539.702332,655.063660 
	C541.589844,654.027893 543.355225,652.761719 545.139221,651.546204 
	C561.809570,640.188416 579.041687,629.980957 599.756531,625.044006 
M354.278748,630.703247 
	C358.911835,629.432678 363.473572,627.545410 368.190552,626.999390 
	C387.447235,624.770142 403.819794,631.031067 417.512970,644.655701 
	C421.889557,649.010437 426.525696,649.464050 429.791656,646.144592 
	C433.173706,642.707214 433.049713,637.981567 428.359955,633.904297 
	C422.508270,628.816833 416.418610,623.761658 409.725433,619.924438 
	C377.621796,601.519409 342.662262,614.085388 318.081451,632.482544 
	C313.635651,635.809937 313.039795,640.242798 315.688843,643.841980 
	C318.406830,647.534851 322.667633,647.394104 327.676117,644.548218 
	C336.138031,639.740051 344.899017,635.458252 354.278748,630.703247 
M504.337250,766.372498 
	C501.871002,764.179260 499.224457,762.154846 496.977905,759.755920 
	C492.920654,755.423584 489.005402,754.394470 484.838745,758.218140 
	C477.445740,765.002441 469.741394,764.878418 461.388062,760.781250 
	C456.526001,758.396545 452.432922,759.574280 447.907623,762.417786 
	C442.374634,765.894409 436.402374,769.359436 430.150848,770.816772 
	C423.535278,772.359009 416.335693,771.222778 409.462524,771.939941 
	C407.437653,772.151245 404.382721,774.485779 404.115112,776.207092 
	C403.841431,777.967651 406.282532,780.274597 407.803894,782.120972 
	C408.321442,782.749146 409.640167,782.822205 410.618713,782.949524 
	C426.091217,784.963684 440.353210,781.987610 453.149048,772.736511 
	C454.347748,771.869934 456.439575,770.896240 457.486664,771.368713 
	C468.804840,776.475159 479.638000,776.217773 490.254669,768.491211 
	C491.073792,769.577148 491.504974,770.689331 492.303833,771.120605 
	C497.766022,774.069458 503.137848,777.306274 508.891388,779.543518 
	C511.714142,780.641174 515.010498,778.994934 515.734070,775.405396 
	C516.451355,771.847168 514.372192,769.866150 511.045746,768.913452 
	C508.986877,768.323730 506.994415,767.502136 504.337250,766.372498 
M458.419830,811.285828 
	C461.749023,811.240906 465.085938,811.325195 468.405975,811.126831 
	C478.439026,810.527283 488.197021,808.688416 497.193726,803.954834 
	C500.621399,802.151428 502.940521,799.330505 500.834900,795.440063 
	C498.805054,791.689636 495.444641,792.578186 492.100220,794.023560 
	C488.611969,795.531128 485.051514,797.050354 481.369202,797.897888 
	C468.089722,800.954468 454.696442,801.167358 441.259491,798.823914 
	C435.738831,797.861084 431.674225,800.883179 433.377472,804.896179 
	C434.202271,806.839417 436.682556,808.983704 438.712860,809.342590 
	C444.888397,810.434265 451.209717,810.700989 458.419830,811.285828 
M458.653107,797.124390 
	C464.453094,796.796936 470.264679,796.596924 476.046448,796.069946 
	C477.952271,795.896240 480.331360,795.383789 481.501068,794.112549 
	C482.858978,792.636780 483.988342,789.966675 483.594147,788.171204 
	C483.273254,786.709717 480.555328,784.764099 478.908600,784.771912 
	C469.798157,784.815125 460.668335,785.154297 451.600555,785.991638 
	C449.868927,786.151428 447.228943,788.915894 447.110229,790.624756 
	C446.989960,792.356140 449.118530,794.874390 450.918030,795.933594 
	C452.769165,797.023193 455.412628,796.766785 458.653107,797.124390 
M446.984467,749.382202 
	C447.751282,745.587341 449.462646,741.692322 449.073242,738.020081 
	C448.417419,731.834961 442.767181,729.902344 438.201385,734.062683 
	C435.577332,736.453674 432.829803,739.470947 431.874146,742.717407 
	C430.915405,745.974182 431.292206,750.214172 432.628662,753.368713 
	C433.684143,755.860107 441.280640,754.742126 444.524994,752.160950 
	C445.294434,751.548767 445.900970,750.731934 446.984467,749.382202 
M464.909729,746.437561 
	C467.554138,748.814514 469.868103,751.964722 472.963043,753.287354 
	C474.917053,754.122437 479.044861,753.006592 480.342621,751.329956 
	C481.558197,749.759583 481.250031,745.649292 479.960693,743.822815 
	C478.077026,741.154663 474.960052,738.958130 471.902313,737.656189 
	C469.814270,736.767029 465.658966,736.822815 464.716858,738.119263 
	C463.473267,739.830688 464.470612,743.170471 464.909729,746.437561 
z"/>
<path fill="#FEFEDF" opacity="1.000000" stroke="none" 
	d="
M858.012573,425.618530 
	C850.488770,425.251801 844.513489,427.780640 839.774719,432.892853 
	C835.150696,437.881226 830.833435,443.153839 826.297729,448.398499 
	C826.356018,448.401245 826.207397,448.394226 826.058838,448.387207 
	C826.148682,448.277374 826.312195,448.171234 826.317871,448.057251 
	C826.679382,440.764435 827.195862,433.474030 827.328857,426.176727 
	C827.452087,419.418030 824.478027,415.670898 818.065125,413.821808 
	C816.476746,413.363892 814.845947,412.973022 813.207825,412.784546 
	C809.430786,412.349915 805.637146,412.058411 801.621216,411.687714 
	C806.327698,409.171326 810.925598,406.605225 815.618713,404.226898 
	C824.609253,399.670685 829.032166,391.833588 831.416626,382.519623 
	C832.811646,377.070526 834.078308,371.588623 835.528992,365.600128 
	C846.089722,382.485352 860.353638,389.383057 880.264099,382.331604 
	C870.076233,397.362549 862.134277,412.037689 876.064026,428.517487 
	C870.013123,427.520691 864.239868,426.569641 858.012573,425.618530 
z"/>
<path fill="#000000" opacity="1.000000" stroke="none" 
	d="
M408.894135,707.889893 
	C403.418884,710.449463 398.373932,714.101196 392.951752,714.791931 
	C381.945862,716.194153 373.993835,706.655029 376.303345,695.535217 
	C377.298126,690.745422 379.662201,686.218872 381.596436,681.654236 
	C382.540894,679.425415 383.926025,677.383362 385.400696,674.738525 
	C373.493317,672.842224 362.248474,673.477234 351.273743,676.447815 
	C335.051849,680.838867 319.359589,686.709900 304.831238,695.351501 
	C303.834869,695.944092 302.830505,696.574036 301.749664,696.964661 
	C298.047913,698.302673 294.728668,697.615295 292.511261,694.276428 
	C290.137329,690.701843 290.858521,687.102783 293.998627,684.426941 
	C296.502106,682.293579 299.376923,680.468384 302.338074,679.019897 
	C325.440186,667.718994 348.921631,657.637451 375.397766,658.131775 
	C396.377502,658.523438 413.874115,667.397766 429.534119,680.602417 
	C430.903290,681.756958 432.080933,683.281311 432.953918,684.852539 
	C434.893860,688.344299 434.374573,691.656494 431.330231,694.306030 
	C428.415375,696.842957 425.138214,696.724976 422.126282,694.604126 
	C419.851257,693.002319 417.903229,690.935974 415.041718,688.394287 
	C415.464325,696.087524 414.411652,702.607666 408.894135,707.889893 
z"/>
<path fill="#000000" opacity="1.000000" stroke="none" 
	d="
M605.625916,689.368347 
	C607.928833,698.911377 605.061646,704.011902 595.373840,706.001099 
	C589.557007,707.195557 583.489441,707.887695 577.568848,707.703491 
	C566.322449,707.353394 559.714844,699.299438 560.660889,688.103760 
	C560.825684,686.152771 560.994629,684.202209 561.293152,680.715820 
	C551.026367,684.938538 541.733521,688.714539 532.483459,692.592407 
	C529.576599,693.810913 526.865601,695.520630 523.920471,696.617554 
	C519.868530,698.126587 515.708740,696.481262 514.163086,692.920166 
	C512.458862,688.993591 513.449341,685.280701 517.036499,683.343140 
	C541.192810,670.295349 565.974243,659.630920 594.486877,665.942627 
	C603.577087,667.954773 611.737549,671.956909 618.515320,678.425720 
	C620.286987,680.116577 622.523804,682.170471 622.848022,684.314575 
	C623.263550,687.062256 622.771667,690.657593 621.201843,692.822266 
	C619.052124,695.786377 615.273499,695.638245 612.184753,693.524109 
	C610.288391,692.226135 608.750000,690.405151 606.532471,688.410767 
	C605.884705,688.457825 605.755310,688.913086 605.625916,689.368347 
z"/>
<path fill="#000000" opacity="1.000000" stroke="none" 
	d="
M599.341187,625.112610 
	C579.041687,629.980957 561.809570,640.188416 545.139221,651.546204 
	C543.355225,652.761719 541.589844,654.027893 539.702332,655.063660 
	C535.332947,657.461548 530.845520,656.639160 528.664795,653.177063 
	C526.433777,649.635132 527.313293,644.984924 531.467773,642.285156 
	C541.764404,635.594055 552.039551,628.810791 562.752441,622.833740 
	C577.512817,614.598389 593.333862,608.996704 610.327209,607.752563 
	C626.214050,606.589417 641.406982,609.691284 655.702637,616.824951 
	C657.624329,617.783875 659.510986,618.896484 661.208313,620.204712 
	C665.393433,623.430298 666.356140,627.997437 663.781982,631.540222 
	C661.311890,634.939758 657.222351,635.141968 652.602783,633.018494 
	C646.169434,630.061279 639.661377,626.982361 632.861450,625.171692 
	C621.964233,622.270081 610.803040,622.369995 599.341187,625.112610 
z"/>
<path fill="#000000" opacity="1.000000" stroke="none" 
	d="
M353.906494,630.829224 
	C344.899017,635.458252 336.138031,639.740051 327.676117,644.548218 
	C322.667633,647.394104 318.406830,647.534851 315.688843,643.841980 
	C313.039795,640.242798 313.635651,635.809937 318.081451,632.482544 
	C342.662262,614.085388 377.621796,601.519409 409.725433,619.924438 
	C416.418610,623.761658 422.508270,628.816833 428.359955,633.904297 
	C433.049713,637.981567 433.173706,642.707214 429.791656,646.144592 
	C426.525696,649.464050 421.889557,649.010437 417.512970,644.655701 
	C403.819794,631.031067 387.447235,624.770142 368.190552,626.999390 
	C363.473572,627.545410 358.911835,629.432678 353.906494,630.829224 
z"/>
<path fill="#000000" opacity="1.000000" stroke="none" 
	d="
M504.654663,766.578552 
	C506.994415,767.502136 508.986877,768.323730 511.045746,768.913452 
	C514.372192,769.866150 516.451355,771.847168 515.734070,775.405396 
	C515.010498,778.994934 511.714142,780.641174 508.891388,779.543518 
	C503.137848,777.306274 497.766022,774.069458 492.303833,771.120605 
	C491.504974,770.689331 491.073792,769.577148 490.254669,768.491211 
	C479.638000,776.217773 468.804840,776.475159 457.486664,771.368713 
	C456.439575,770.896240 454.347748,771.869934 453.149048,772.736511 
	C440.353210,781.987610 426.091217,784.963684 410.618713,782.949524 
	C409.640167,782.822205 408.321442,782.749146 407.803894,782.120972 
	C406.282532,780.274597 403.841431,777.967651 404.115112,776.207092 
	C404.382721,774.485779 407.437653,772.151245 409.462524,771.939941 
	C416.335693,771.222778 423.535278,772.359009 430.150848,770.816772 
	C436.402374,769.359436 442.374634,765.894409 447.907623,762.417786 
	C452.432922,759.574280 456.526001,758.396545 461.388062,760.781250 
	C469.741394,764.878418 477.445740,765.002441 484.838745,758.218140 
	C489.005402,754.394470 492.920654,755.423584 496.977905,759.755920 
	C499.224457,762.154846 501.871002,764.179260 504.654663,766.578552 
z"/>
<path fill="#000000" opacity="1.000000" stroke="none" 
	d="
M457.947083,811.287354 
	C451.209717,810.700989 444.888397,810.434265 438.712860,809.342590 
	C436.682556,808.983704 434.202271,806.839417 433.377472,804.896179 
	C431.674225,800.883179 435.738831,797.861084 441.259491,798.823914 
	C454.696442,801.167358 468.089722,800.954468 481.369202,797.897888 
	C485.051514,797.050354 488.611969,795.531128 492.100220,794.023560 
	C495.444641,792.578186 498.805054,791.689636 500.834900,795.440063 
	C502.940521,799.330505 500.621399,802.151428 497.193726,803.954834 
	C488.197021,808.688416 478.439026,810.527283 468.405975,811.126831 
	C465.085938,811.325195 461.749023,811.240906 457.947083,811.287354 
z"/>
<path fill="#000000" opacity="1.000000" stroke="none" 
	d="
M458.181213,797.111816 
	C455.412628,796.766785 452.769165,797.023193 450.918030,795.933594 
	C449.118530,794.874390 446.989960,792.356140 447.110229,790.624756 
	C447.228943,788.915894 449.868927,786.151428 451.600555,785.991638 
	C460.668335,785.154297 469.798157,784.815125 478.908600,784.771912 
	C480.555328,784.764099 483.273254,786.709717 483.594147,788.171204 
	C483.988342,789.966675 482.858978,792.636780 481.501068,794.112549 
	C480.331360,795.383789 477.952271,795.896240 476.046448,796.069946 
	C470.264679,796.596924 464.453094,796.796936 458.181213,797.111816 
z"/>
<path fill="#000000" opacity="1.000000" stroke="none" 
	d="
M446.783447,749.695679 
	C445.900970,750.731934 445.294434,751.548767 444.524994,752.160950 
	C441.280640,754.742126 433.684143,755.860107 432.628662,753.368713 
	C431.292206,750.214172 430.915405,745.974182 431.874146,742.717407 
	C432.829803,739.470947 435.577332,736.453674 438.201385,734.062683 
	C442.767181,729.902344 448.417419,731.834961 449.073242,738.020081 
	C449.462646,741.692322 447.751282,745.587341 446.783447,749.695679 
z"/>
<path fill="#000000" opacity="1.000000" stroke="none" 
	d="
M464.707214,746.123901 
	C464.470612,743.170471 463.473267,739.830688 464.716858,738.119263 
	C465.658966,736.822815 469.814270,736.767029 471.902313,737.656189 
	C474.960052,738.958130 478.077026,741.154663 479.960693,743.822815 
	C481.250031,745.649292 481.558197,749.759583 480.342621,751.329956 
	C479.044861,753.006592 474.917053,754.122437 472.963043,753.287354 
	C469.868103,751.964722 467.554138,748.814514 464.707214,746.123901 
z"/>
<path fill="#FEFEDF" opacity="1.000000" stroke="none" 
	d="
M605.841919,689.142456 
	C605.755310,688.913086 605.884705,688.457825 606.247192,688.229248 
	C606.339478,688.609497 606.198730,688.763062 605.841919,689.142456 
z"/>
</svg>